<?xml version="1.0" encoding="utf-8"?>
<svg viewBox="16.351 18.583 34.306 45.307" xmlns="http://www.w3.org/2000/svg">
  <g fill="#ffffff" transform="matrix(0.571773, 0, 0, 0.604133, -8.727104, 18.583437)" style="">
    <g transform="matrix(1,0,0,1,43.86000061035156,0)" opacity="1">
      <g>
        <rect fill="#ffffff" fill-opacity="0" stroke-width="2" x="0" y="0" width="59.99999999999999" height="74.99437542184336"/>
        <svg x="0" y="0" width="59.99999999999999" height="74.99437542184336" filtersec="colorsb2245733363" style="overflow: visible;">
          <svg xmlns="http://www.w3.org/2000/svg" viewBox="-0.005629400257021189 0 80.00563049316406 100">
            <g fill-rule="evenodd">
              <path d="M80 3.77C59.39 19.79 5.22 27 0 46.84v31.38c0 8.5 2.88 15.55 10.74 21.78C.7 68.08 77.26 73.05 80 45.87z" fill="rebeccapurple" opacity=".8"/>
              <path d="M51.69 17.48L51.59 0C29.1 15.36 2 18.09 0 46.84v31.38a27 27 0 0 0 2.39 11.67c-.34-34.1 49.56-20.5 49.4-52.8z" fill="orange" opacity=".8"/>
            </g>
          </svg>
        </svg>
      </g>
    </g>
  </g>
</svg>