<?xml version="1.0" encoding="utf-8"?>
<svg viewBox="0 0 100 100" xmlns="http://www.w3.org/2000/svg" width="200px" height="200px" xmlns:xlink="http://www.w3.org/1999/xlink" style="width:100%;height:100%;background-size:initial;background-repeat-y:initial;background-repeat-x:initial;background-position-y:initial;background-position-x:initial;background-origin:initial;background-image:initial;background-color:rgb(255, 255, 255);background-clip:initial;background-attachment:initial;animation-play-state:paused">
  <g class="ldl-scale" style="transform-origin:50% 50%;transform:rotate(0deg) scale(0.8, 0.8);animation-play-state:paused">
    <path fill="#e15b64" d="M95 93.7H5V72.2l27.9-18.5c1.4-.9 3.2-1.2 4.8-.7l25.6 8.3c1.6.5 3.4.3 4.9-.7L95 42.2v51.5m-26.7-39L95 36.3v-30L66.7 16c-.4.2-.9.4-1.3.6l-29 19.2c-.4.3-.9.5-1.4.7L5 46.3v20l28.5-18.5c1.4-.9 3.2-1.1 4.8-.6l25.1 8.3c1.6.5 3.5.2 4.9-.8z" style="animation-play-state:paused"/>
  </g>
</svg>
