<svg viewBox="0 0 100 100" xmlns="http://www.w3.org/2000/svg" width="200px" height="200px" xmlns:xlink="http://www.w3.org/1999/xlink" style="width:100%;height:100%;background-size:initial;background-repeat-y:initial;background-repeat-x:initial;background-position-y:initial;background-position-x:initial;background-origin:initial;background-image:initial;background-color:rgb(255, 255, 255);background-clip:initial;background-attachment:initial;animation-play-state:paused">
  <g class="ldl-scale" style="transform-origin:50% 50%;transform:rotate(0deg) scale(0.8, 0.8);animation-play-state:paused">
    <path fill="#e15b64" d="M5 77.9h19.6V95H5V77.9zm0-16.6h19.6V50.8H5v10.5zm0-33.8h19.6V14H5v13.5zM28.5 95H48v-6.8H28.5V95zm0-33.7H48V41H28.5v20.3zm0-33.8H48V8H28.5v19.5zM52 95h19.6V68.7H52V95zm0-33.7h19.6v-9.8H52v9.8zm0-33.8h19.6V10.3H52v17.2zM75.4 95H95V77.9H75.4V95zm0-33.7H95V56H75.4v5.3zm0-33.8H95V5H75.4v22.5z" style="animation-play-state:paused"/>
  </g>
</svg>
