<?xml version="1.0" encoding="utf-8"?>
<svg viewBox="0 0 100 100" xmlns="http://www.w3.org/2000/svg" width="200px" height="200px" xmlns:xlink="http://www.w3.org/1999/xlink" style="width:100%;height:100%;background-size:initial;background-repeat-y:initial;background-repeat-x:initial;background-position-y:initial;background-position-x:initial;background-origin:initial;background-image:initial;background-color:rgb(255, 255, 255);background-clip:initial;background-attachment:initial;animation-play-state:paused" >
  <g class="ldl-scale" style="transform-origin:50% 50%;transform:rotate(0deg) scale(0.8, 0.8);animation-play-state:paused" >
    <path stroke-miterlimit="10" stroke-linecap="round" stroke-width="5" stroke="#a0c8d7" fill="none" d="M50 65c8.284 0 15-6.716 15-15 0-8.284-6.716-15-15-15" style="stroke:rgb(160, 200, 215);animation-play-state:paused" >
    </path>
    <path stroke-miterlimit="10" stroke-linecap="round" stroke-width="5" stroke="#abbd81" fill="none" d="M69.617 61.028A22.397 22.397 0 0 0 72.5 50c0-12.426-10.074-22.5-22.5-22.5" style="stroke:rgb(171, 189, 129);animation-play-state:paused" >
      </path>
    <path stroke-miterlimit="10" stroke-linecap="round" stroke-width="5" stroke="#f8b26a" fill="none" d="M20.026 51.256C20.684 67.242 33.852 80 50 80c16.569 0 30-13.431 30-30S66.569 20 50 20" style="stroke:rgb(248, 178, 106);animation-play-state:paused" >
    </path>
    <path stroke-miterlimit="10" stroke-linecap="round" stroke-width="5" stroke="#e15b64" fill="none" d="M27.499 19.998C18.391 26.84 12.5 37.732 12.5 50c0 20.711 16.789 37.5 37.5 37.5S87.5 70.711 87.5 50 70.711 12.5 50 12.5" style="stroke:rgb(225, 91, 100);animation-play-state:paused" >
    </path>
  </g>
</svg>