<?xml version="1.0" encoding="utf-8"?><svg viewBox="0 0 100 100" xmlns="http://www.w3.org/2000/svg" width="200px" height="200px" xmlns:xlink="http://www.w3.org/1999/xlink" style="width:100%;height:100%;background-size:initial;background-repeat-y:initial;background-repeat-x:initial;background-position-y:initial;background-position-x:initial;background-origin:initial;background-image:initial;background-color:rgb(255, 255, 255);background-clip:initial;background-attachment:initial;animation-play-state:paused" ><g class="ldl-scale" style="transform-origin:50% 50%;transform:rotate(0deg) scale(0.8, 0.8);animation-play-state:paused" ><path d="M7.5 74.022h18.478v7.391H7.5z" fill="#e15b64" style="fill:rgb(225, 91, 100);animation-play-state:paused" ></path>
<path d="M7.5 62.935h18.478v7.391H7.5z" fill="#e15b64" style="fill:rgb(225, 91, 100);animation-play-state:paused" ></path>
<path d="M7.5 51.848h18.478v7.391H7.5z" fill="#e15b64" style="fill:rgb(225, 91, 100);animation-play-state:paused" ></path>
<path d="M29.674 74.022h18.478v7.391H29.674z" fill="#f8b26a" style="fill:rgb(248, 178, 106);animation-play-state:paused" ></path>
<path d="M29.674 62.935h18.478v7.391H29.674z" fill="#f8b26a" style="fill:rgb(248, 178, 106);animation-play-state:paused" ></path>
<path d="M29.674 51.848h18.478v7.391H29.674z" fill="#f8b26a" style="fill:rgb(248, 178, 106);animation-play-state:paused" ></path>
<path d="M29.674 40.761h18.478v7.391H29.674z" fill="#f8b26a" style="fill:rgb(248, 178, 106);animation-play-state:paused" ></path>
<path d="M29.674 29.674h18.478v7.391H29.674z" fill="#f8b26a" style="fill:rgb(248, 178, 106);animation-play-state:paused" ></path>
<path d="M29.674 18.587h18.478v7.391H29.674z" fill="#f8b26a" style="fill:rgb(248, 178, 106);animation-play-state:paused" ></path>
<path d="M51.848 74.022h18.478v7.391H51.848z" fill="#abbd81" style="fill:rgb(171, 189, 129);animation-play-state:paused" ></path>
<path d="M51.848 62.935h18.478v7.391H51.848z" fill="#abbd81" style="fill:rgb(171, 189, 129);animation-play-state:paused" ></path>
<path d="M74.022 74.022H92.5v7.391H74.022z" fill="#a0c8d7" style="fill:rgb(160, 200, 215);animation-play-state:paused" ></path>
<path d="M74.022 62.935H92.5v7.391H74.022z" fill="#a0c8d7" style="fill:rgb(160, 200, 215);animation-play-state:paused" ></path>
<path d="M51.848 51.848h18.478v7.391H51.848z" fill="#abbd81" style="fill:rgb(171, 189, 129);animation-play-state:paused" ></path>
<path d="M51.848 40.761h18.478v7.391H51.848z" fill="#abbd81" style="fill:rgb(171, 189, 129);animation-play-state:paused" ></path>
<metadata xmlns:d="https://loading.io/stock/" style="animation-play-state:paused" ><d:name style="animation-play-state:paused" >stack</d:name>


<d:tags style="animation-play-state:paused" >stack,bar,column,overflow,brick,rectangle</d:tags>


<d:license style="animation-play-state:paused" >by</d:license>


<d:slug style="animation-play-state:paused" >esc445</d:slug></metadata></g><!-- generated by https://loading.io/ --></svg>