<?xml version="1.0" encoding="utf-8"?><svg viewBox="0 0 100 100" xmlns="http://www.w3.org/2000/svg" width="200px" height="200px" xmlns:xlink="http://www.w3.org/1999/xlink" style="width:100%;height:100%;background-size:initial;background-repeat-y:initial;background-repeat-x:initial;background-position-y:initial;background-position-x:initial;background-origin:initial;background-image:initial;background-color:rgb(255, 255, 255);background-clip:initial;background-attachment:initial;animation-play-state:paused" ><g class="ldl-scale" style="transform-origin:50% 50%;transform:rotate(0deg) scale(0.8, 0.8);animation-play-state:paused" ><path fill="#e15b64" d="M82.727 50a32.716 32.716 0 0 1-4.286 16.183C72.88 75.934 62.683 82.156 51.558 82.69v7.28c13.73-.539 26.346-8.169 33.2-20.183A39.99 39.99 0 0 0 90 50c0-21.534-17.105-39.148-38.442-39.97v7.279C68.884 18.125 82.727 32.476 82.727 50z" style="fill:rgb(225, 91, 100);animation-play-state:paused" ></path>
<path fill="#abbd81" d="M48.442 17.31v-7.279c-13.016.514-25.096 7.439-32.138 18.425l3.043 1.786 3.236 1.899c5.731-8.775 15.411-14.326 25.859-14.831z" style="fill:rgb(171, 189, 129);animation-play-state:paused" ></path>
<path fill="#f8b26a" d="M17.273 50a32.702 32.702 0 0 1 3.731-15.171l-3.386-1.987-2.893-1.698A39.997 39.997 0 0 0 10 50c0 21.534 17.105 39.148 38.442 39.97v-7.279C31.116 81.875 17.273 67.524 17.273 50z" style="fill:rgb(248, 178, 106);animation-play-state:paused" ></path>
<metadata xmlns:d="https://loading.io/stock/" style="animation-play-state:paused" ><d:name style="animation-play-state:paused" >pie</d:name>


<d:tags style="animation-play-state:paused" >pie,donut,circle,percent,proportion,ratio,chart</d:tags>


<d:license style="animation-play-state:paused" >by</d:license>


<d:slug style="animation-play-state:paused" >mq28gt</d:slug></metadata></g><!-- generated by https://loading.io/ --></svg>