<?xml version="1.0" encoding="utf-8"?><svg viewBox="0 0 100 100" xmlns="http://www.w3.org/2000/svg" width="200px" height="200px" xmlns:xlink="http://www.w3.org/1999/xlink" style="width:100%;height:100%;background-size:initial;background-repeat-y:initial;background-repeat-x:initial;background-position-y:initial;background-position-x:initial;background-origin:initial;background-image:initial;background-color:rgb(255, 255, 255);background-clip:initial;background-attachment:initial;animation-play-state:paused" ><g class="ldl-scale" style="transform-origin:50% 50%;transform:rotate(0deg) scale(0.8, 0.8);animation-play-state:paused" ><path fill="#e15b64" d="M72.338 50c0 3.869-1.011 7.687-2.922 11.04a22.424 22.424 0 0 1-17.858 11.243V89.97c13.73-.539 26.347-8.167 33.199-20.179A40.017 40.017 0 0 0 90 50c0-21.534-17.105-39.148-38.442-39.97v17.686c11.593.803 20.78 10.491 20.78 22.284z" style="fill:rgb(225, 91, 100);animation-play-state:paused" ></path>
<path fill="#fff" d="M48.5 8.5v.05c.5-.018.998-.05 1.5-.05h-1.5z" style="fill:rgb(255, 255, 255);animation-play-state:paused" ></path>
<path fill="#abbd81" d="M48.442 27.718V10.031c-13.017.514-25.096 7.438-32.137 18.421l1.317.773 13.938 8.179c3.849-5.617 10.105-9.206 16.882-9.686z" style="fill:rgb(171, 189, 129);animation-play-state:paused" ></path>
<path fill="#fff" d="M51.5 8.5H50c.503 0 1.001.02 1.5.038V8.5z" style="fill:rgb(255, 255, 255);animation-play-state:paused" ></path>
<path fill="#f8b26a" d="M27.662 50c0-3.446.798-6.84 2.319-9.908l-2.461-1.444-12.793-7.508A39.988 39.988 0 0 0 10 50c0 21.534 17.105 39.148 38.442 39.97V72.284C36.849 71.481 27.662 61.793 27.662 50z" style="fill:rgb(248, 178, 106);animation-play-state:paused" ></path>
<metadata xmlns:d="https://loading.io/stock/" style="animation-play-state:paused" ><d:name style="animation-play-state:paused" >pie</d:name>


<d:tags style="animation-play-state:paused" >pie,donut,circle,percent,proportion,ratio,chart</d:tags>


<d:license style="animation-play-state:paused" >by</d:license>


<d:slug style="animation-play-state:paused" >muxxl1</d:slug></metadata></g><!-- generated by https://loading.io/ --></svg>