<?xml version="1.0" ?><!DOCTYPE svg  PUBLIC '-//W3C//DTD SVG 1.1//EN'  'http://www.w3.org/Graphics/SVG/1.1/DTD/svg11.dtd'><!-- Uploaded to: SVG Repo, www.svgrepo.com, Generator: SVG Repo Mixer Tools -->
<svg width="800px" height="800px" viewBox="0 -1.5 2253 2253" style="fill-rule:evenodd;clip-rule:evenodd;stroke-linecap:round;stroke-linejoin:round;stroke-miterlimit:1.5;" version="1.1" xml:space="preserve" xmlns="http://www.w3.org/2000/svg" xmlns:serif="http://www.serif.com/" xmlns:xlink="http://www.w3.org/1999/xlink"><rect height="2250" id="Heatmap" style="fill:none;" width="2250" x="1.288" y="0"/><rect height="495.833" style="fill:#3050f3;stroke:#000000;stroke-width:66.67px;" width="495.833" x="134.621" y="133.333"/><rect height="495.833" style="fill:#3050f3;stroke:#000000;stroke-width:66.67px;" width="495.833" x="630.454" y="133.333"/><rect height="495.833" style="fill:#308df8;stroke:#000000;stroke-width:66.67px;" width="495.833" x="1126.29" y="133.333"/><rect height="495.833" style="fill:#4dbe4b;stroke:#000000;stroke-width:66.67px;" width="495.833" x="1622.12" y="133.333"/><rect height="495.833" style="fill:#3050f3;stroke:#000000;stroke-width:66.67px;" width="495.833" x="134.621" y="629.167"/><rect height="495.833" style="fill:#308df8;stroke:#000000;stroke-width:66.67px;" width="495.833" x="134.621" y="1125"/><rect height="495.833" style="fill:#308df8;stroke:#000000;stroke-width:66.67px;" width="495.833" x="134.621" y="1620.83"/><rect height="495.833" style="fill:#308df8;stroke:#000000;stroke-width:66.67px;" width="495.833" x="630.454" y="629.167"/><rect height="495.833" style="fill:#308df8;stroke:#000000;stroke-width:66.67px;" width="495.833" x="630.454" y="1125"/><rect height="495.833" style="fill:#308df8;stroke:#000000;stroke-width:66.67px;" width="495.833" x="630.454" y="1620.83"/><rect height="495.833" style="fill:#308df8;stroke:#000000;stroke-width:66.67px;" width="495.833" x="1126.29" y="629.167"/><rect height="495.833" style="fill:#308df8;stroke:#000000;stroke-width:66.67px;" width="495.833" x="1126.29" y="1125"/><rect height="495.833" style="fill:#4dbe4b;stroke:#000000;stroke-width:66.67px;" width="495.833" x="1126.29" y="1620.83"/><rect height="495.833" style="fill:#4dbe4b;stroke:#000000;stroke-width:66.67px;" width="495.833" x="1622.12" y="629.167"/><rect height="495.833" style="fill:#4dbe4b;stroke:#000000;stroke-width:66.67px;" width="495.833" x="1622.12" y="1125"/><rect height="495.833" style="fill:#4dbe4b;stroke:#000000;stroke-width:66.67px;" width="495.833" x="1622.12" y="1620.83"/></svg>