<?xml version="1.0" encoding="utf-8"?>
<svg viewBox="0 0 100 100" xmlns="http://www.w3.org/2000/svg" width="200px" height="200px" xmlns:xlink="http://www.w3.org/1999/xlink" style="width:100%;height:100%;background-size:initial;background-repeat-y:initial;background-repeat-x:initial;background-position-y:initial;background-position-x:initial;background-origin:initial;background-image:initial;background-color:rgb(255, 255, 255);background-clip:initial;background-attachment:initial;animation-play-state:paused">
  <g class="ldl-scale" style="transform-origin:50% 50%;transform:rotate(0deg) scale(0.8, 0.8);animation-play-state:paused">
    <path fill="#f8b26a" d="M16.5 81.3c5.2 0 9.4-4.2 9.4-9.4 0-2.6-1.1-5-2.9-6.8l13.1-21.8c.8.2 1.5.3 2.3.3 2.1 0 4-.7 5.6-1.8l8.7 7.7c-.4 1.1-.7 2.3-.7 3.5 0 5.2 4.2 9.4 9.4 9.4s9.4-4.2 9.4-9.4c0-2.5-1-4.8-2.6-6.5l12.3-22.2c.9.3 1.9.4 2.9.4 5.2 0 9.4-4.2 9.4-9.4s-4.2-9.4-9.4-9.4-9.4 4.2-9.4 9.4c0 2.7 1.1 5.1 3 6.8l-12.2 22c-1-.4-2.1-.6-3.3-.6-2.4 0-4.6.9-6.3 2.4l-8.4-7.4c.7-1.3 1.1-2.8 1.1-4.4 0-5.2-4.2-9.4-9.4-9.4s-9.4 4.2-9.4 9.4c0 2.9 1.3 5.5 3.3 7.2L19.5 62.9c-.9-.3-1.9-.5-3-.5-5.2 0-9.4 4.2-9.4 9.4 0 5.3 4.2 9.5 9.4 9.5zm67-71.2c2.9 0 5.2 2.3 5.2 5.2s-2.3 5.2-5.2 5.2c-2.9 0-5.2-2.3-5.2-5.2s2.3-5.2 5.2-5.2zm-22 37.7c2.9 0 5.2 2.3 5.2 5.2 0 2.9-2.3 5.2-5.2 5.2-2.9 0-5.2-2.3-5.2-5.2 0-2.9 2.3-5.2 5.2-5.2zM38.5 29c2.9 0 5.2 2.3 5.2 5.2 0 2.9-2.3 5.2-5.2 5.2s-5.2-2.3-5.2-5.2c-.1-2.9 2.3-5.2 5.2-5.2zm-22 37.6c2.9 0 5.2 2.3 5.2 5.2S19.4 77 16.5 77s-5.2-2.3-5.2-5.2 2.3-5.2 5.2-5.2z" style="animation-play-state:paused"/>
    <path d="M5 90.1h90v4H5z" fill="#e15b64" style="animation-play-state:paused"/>
  </g>
</svg>
