<?xml version="1.0" encoding="utf-8"?><svg viewBox="0 0 100 100" xmlns="http://www.w3.org/2000/svg" width="200px" height="200px" xmlns:xlink="http://www.w3.org/1999/xlink" style="width:100%;height:100%;background-size:initial;background-repeat-y:initial;background-repeat-x:initial;background-position-y:initial;background-position-x:initial;background-origin:initial;background-image:initial;background-color:rgb(255, 255, 255);background-clip:initial;background-attachment:initial;animation-play-state:paused" ><g class="ldl-scale" style="transform-origin:50% 50%;transform:rotate(0deg) scale(0.8, 0.8);animation-play-state:paused" ><path fill="#77a4bd" d="M48.5 17.218a32.546 32.546 0 0 0-20.62 8.541l12.629 12.629a14.931 14.931 0 0 1 7.991-3.312V17.218z" style="fill:rgb(119, 164, 189);animation-play-state:paused" ></path>
<path fill="#a0c8d7" d="M21.736 23.857C15.463 30.626 11.88 39.276 11.528 48.5h23.547a14.924 14.924 0 0 1 3.312-7.991L21.736 23.857z" style="fill:rgb(160, 200, 215);animation-play-state:paused" ></path>
<path fill="#e15b64" d="M72.716 48.5a22.563 22.563 0 0 0-5.593-13.502l-5.511 5.511a14.931 14.931 0 0 1 3.312 7.991h7.792z" style="fill:rgb(225, 91, 100);animation-play-state:paused" ></path>
<path fill="#c33737" d="M67.158 30.721L80.529 17.35C72.584 9.911 62.378 5.683 51.5 5.327v29.749c3.017.3 5.769 1.493 7.991 3.312l7.667-7.667z" style="fill:rgb(195, 55, 55);animation-play-state:paused" ></path>
<path fill="#f8b26a" d="M51.5 64.924V88.471c9.223-.351 17.874-3.934 24.643-10.208L59.491 61.612a14.916 14.916 0 0 1-7.991 3.312z" style="fill:rgb(248, 178, 106);animation-play-state:paused" ></path>
<path fill="#849b87" d="M27.284 51.5a22.56 22.56 0 0 0 5.593 13.502l5.511-5.511a14.935 14.935 0 0 1-3.312-7.991h-7.792z" style="fill:rgb(132, 155, 135);animation-play-state:paused" ></path>
<path fill="#f47e60" d="M74.988 72.867A33.612 33.612 0 0 0 83.839 51.5H64.925a14.924 14.924 0 0 1-3.312 7.991l13.375 13.376z" style="fill:rgb(244, 126, 96);animation-play-state:paused" ></path>
<path fill="#abbd81" d="M27.88 74.241a32.557 32.557 0 0 0 20.62 8.541V64.924a14.924 14.924 0 0 1-7.991-3.312L27.88 74.241z" style="fill:rgb(171, 189, 129);animation-play-state:paused" ></path>
<metadata xmlns:d="https://loading.io/stock/" style="animation-play-state:paused" ><d:name style="animation-play-state:paused" >pie</d:name>


<d:tags style="animation-play-state:paused" >pie,donut,circle,percent,proportion,ratio,chart,winrose,nightingale</d:tags>


<d:license style="animation-play-state:paused" >by</d:license>


<d:slug style="animation-play-state:paused" >kokd5i</d:slug></metadata></g><!-- generated by https://loading.io/ --></svg>