<?xml version="1.0" encoding="utf-8"?><svg viewBox="0 0 100 100" xmlns="http://www.w3.org/2000/svg" width="200px" height="200px" xmlns:xlink="http://www.w3.org/1999/xlink" style="width:100%;height:100%;background-size:initial;background-repeat-y:initial;background-repeat-x:initial;background-position-y:initial;background-position-x:initial;background-origin:initial;background-image:initial;background-color:rgb(255, 255, 255);background-clip:initial;background-attachment:initial;animation-play-state:paused" ><g class="ldl-scale" style="transform-origin:50% 50%;transform:rotate(0deg) scale(0.8, 0.8);animation-play-state:paused" ><path fill="#77a4bd" d="M27.88 25.759l20.62 20.62V17.218a32.557 32.557 0 0 0-20.62 8.541z" style="fill:rgb(119, 164, 189);animation-play-state:paused" ></path>
<path fill="#a0c8d7" d="M11.528 48.5h34.851L21.736 23.857c-6.274 6.769-9.857 15.42-10.208 24.643z" style="fill:rgb(160, 200, 215);animation-play-state:paused" ></path>
<path fill="#e15b64" d="M72.716 48.5a22.563 22.563 0 0 0-5.593-13.502L53.621 48.5h19.095z" style="fill:rgb(225, 91, 100);animation-play-state:paused" ></path>
<path fill="#c33737" d="M80.528 17.351C72.584 9.911 62.378 5.683 51.5 5.327V46.379l15.658-15.658 13.37-13.37z" style="fill:rgb(195, 55, 55);animation-play-state:paused" ></path>
<path fill="#f8b26a" d="M51.5 88.472c9.223-.351 17.874-3.934 24.643-10.208L51.5 53.621v34.851z" style="fill:rgb(248, 178, 106);animation-play-state:paused" ></path>
<path fill="#849b87" d="M32.876 65.002L46.379 51.5H27.284a22.565 22.565 0 0 0 5.592 13.502z" style="fill:rgb(132, 155, 135);animation-play-state:paused" ></path>
<path fill="#f47e60" d="M83.838 51.5H53.621l21.367 21.367a33.608 33.608 0 0 0 8.85-21.367z" style="fill:rgb(244, 126, 96);animation-play-state:paused" ></path>
<path fill="#abbd81" d="M48.5 82.782V53.621l-20.62 20.62a32.551 32.551 0 0 0 20.62 8.541z" style="fill:rgb(171, 189, 129);animation-play-state:paused" ></path>
<metadata xmlns:d="https://loading.io/stock/" style="animation-play-state:paused" ><d:name style="animation-play-state:paused" >pie</d:name>


<d:tags style="animation-play-state:paused" >pie,donut,circle,percent,proportion,ratio,chart,winrose,nightingale</d:tags>


<d:license style="animation-play-state:paused" >by</d:license>


<d:slug style="animation-play-state:paused" >i2sn4w</d:slug></metadata></g><!-- generated by https://loading.io/ --></svg>