<?xml version="1.0" encoding="utf-8"?>
<svg viewBox="0 0 100 100" xmlns="http://www.w3.org/2000/svg" width="200px" height="200px" xmlns:xlink="http://www.w3.org/1999/xlink" style="width:100%;height:100%;background-size:initial;background-repeat-y:initial;background-repeat-x:initial;background-position-y:initial;background-position-x:initial;background-origin:initial;background-image:initial;background-color:rgb(255, 255, 255);background-clip:initial;background-attachment:initial;animation-play-state:paused">
  <g class="ldl-scale" style="transform-origin:50% 50%;transform:rotate(0deg) scale(0.8, 0.8);animation-play-state:paused">
    <path fill="#e15b64" d="M93.4 8.3V5H82.6c-4.9-.2-9 4.8-12.5 15.4C65 10.1 60.3 5 55.6 5h-49V29.9h10.8c4.2.1 8 2.4 11.6 7 4.3 6 9.5 9.1 15.5 9.2h10.8c1.5 0 3.2.9 5.2 3.8-1.9 2.9-3.7 3.8-5.1 3.8H44.6c-4.6 0-8.3-2.3-11.4-6.9l-.1-.1c-4.8-6.1-10-9.2-15.7-9.2H6.6V95h49c4.7-.5 8.7-7.3 12.7-21.9C71.8 88 76.4 95 82.5 95h10.8V37.4H82.6c-1.6-.2-3.1-1-4.7-2.6 2-4.2 3.7-5 4.6-5h10.8v-3.3l.1-18.2zM44.6 42.9c-5-.1-9.2-2.7-12.9-7.9-4.2-5.4-8.9-8.2-14.2-8.4V8.3h27.1v34.6zm0 48.8H17.5v-51c4.6.1 8.9 2.7 13.1 7.9 3.7 5.5 8.4 8.3 14 8.3v34.8zm10.8 0V57c2.5-.1 4.8-1.4 6.8-3.9 1.4 3 2.9 7.2 4.3 13-5.1 21.8-9.3 25.3-11.1 25.6zm27-50.9h.1v51c-3.2 0-7.9-4-12-23.2l-.6-2.4c-.6-2.5-1.2-4.7-1.8-6.8-1.2-3.8-2.4-7-3.8-9.4-.7-1.2-1.4-2.3-2.1-3.1-2.1-2.6-4.3-3.9-6.9-3.9V8.3h.1c2 0 6.3 2.1 12.4 15.4l.6 1.5c.7 1.7 1.4 3.3 2.1 4.7 1.1 2.2 2.3 4.1 3.4 5.6.8 1 1.6 1.9 2.5 2.7 2 1.5 4 2.4 6 2.6zm.1-14.1c-2.6 0-4.8 1.7-6.8 5.4-1.3-1.9-2.5-4.3-3.7-7.1 4.3-14.5 8.3-16.8 10.5-16.7v18.4z" style="animation-play-state:paused"/>
  </g>
</svg>
