<svg xmlns:xlink="http://www.w3.org/1999/xlink" xmlns="http://www.w3.org/2000/svg" viewBox="0 0 100 100" width="100"
    height="100">
    <path
        d="M63.4 22.7c0 3.5-2.8 6.3-6.3 6.3s-6.3-2.8-6.3-6.3 2.8-6.3 6.3-6.3 6.3 2.9 6.3 6.3zM73.7 5c-3.5 0-6.3 2.8-6.3 6.3s2.8 6.3 6.3 6.3 6.3-2.8 6.3-6.3S77.1 5 73.7 5zm-52 49.9c-3.5 0-6.3 2.8-6.3 6.3s2.8 6.3 6.3 6.3 6.3-2.8 6.3-6.3-2.8-6.3-6.3-6.3zm15.4 9.5c-3.5 0-6.3 2.8-6.3 6.3s2.8 6.3 6.3 6.3 6.3-2.8 6.3-6.3-2.8-6.3-6.3-6.3zM14.2 74.6c-3.5 0-6.3 2.8-6.3 6.3s2.8 6.3 6.3 6.3 6.3-2.8 6.3-6.3c-.1-3.5-2.9-6.3-6.3-6.3zM46 43.3c0-3.5-2.8-6.3-6.3-6.3s-6.3 2.8-6.3 6.3c0 3.2 2.4 5.9 5.6 6.2 0 3.5 2.8 6.3 6.3 6.3s6.3-2.8 6.3-6.3c0-3.2-2.5-5.8-5.6-6.2zm-9.3-25.8c-3.5 0-6.3 2.8-6.3 6.3s2.8 6.3 6.3 6.3 6.3-2.8 6.3-6.3-2.8-6.3-6.3-6.3zm29.7 10.1c-3.5 0-6.3 2.8-6.3 6.3s2.8 6.3 6.3 6.3 6.3-2.8 6.3-6.3-2.8-6.3-6.3-6.3zm19.4-3.8c-3.5 0-6.3 2.8-6.3 6.3s2.8 6.3 6.3 6.3 6.3-2.8 6.3-6.3-2.8-6.3-6.3-6.3zM66.4 48.7c-3.5 0-6.3 2.8-6.3 6.3s2.8 6.3 6.3 6.3 6.3-2.8 6.3-6.3-2.8-6.3-6.3-6.3zm23.9 40.1H9.7V95h80.6v-6.2z"
        fill="#e15b64" />
</svg>