<svg xmlns:xlink="http://www.w3.org/1999/xlink" xmlns="http://www.w3.org/2000/svg" viewBox="0 0 100 100" width="187"  height="187" ><path d="M31.5 18.2c0 7.3-5.9 13.2-13.2 13.2S5 25.5 5 18.2 10.9 5 18.2 5s13.3 5.9 13.3 13.2zm50.3-7.9c-4.4 0-7.9 3.6-7.9 7.9s3.6 7.9 7.9 7.9c4.4 0 7.9-3.6 7.9-7.9s-3.5-7.9-7.9-7.9zM50 15.6c-1.5 0-2.6 1.2-2.6 2.6 0 1.5 1.2 2.6 2.6 2.6s2.6-1.2 2.6-2.6c0-1.4-1.1-2.6-2.6-2.6zM18.2 44.7c-2.9 0-5.3 2.4-5.3 5.3s2.4 5.3 5.3 5.3 5.3-2.4 5.3-5.3-2.3-5.3-5.3-5.3zm63.6-7.9c-7.3 0-13.2 5.9-13.2 13.2s5.9 13.2 13.2 13.2C89.1 63.2 95 57.3 95 50s-5.9-13.2-13.2-13.2zM50 39.4c-5.8 0-10.6 4.7-10.6 10.6S44.2 60.6 50 60.6 60.6 55.8 60.6 50 55.8 39.4 50 39.4zM18.2 76.5c-2.9 0-5.3 2.4-5.3 5.3s2.4 5.3 5.3 5.3 5.3-2.4 5.3-5.3-2.3-5.3-5.3-5.3zm63.6 2.6c-1.5 0-2.6 1.2-2.6 2.6s1.2 2.6 2.6 2.6c1.5 0 2.6-1.2 2.6-2.6s-1.2-2.6-2.6-2.6zM50 68.5c-7.3 0-13.2 5.9-13.2 13.2C36.8 89.1 42.7 95 50 95s13.2-5.9 13.2-13.2c0-7.3-5.9-13.3-13.2-13.3z" fill="#333"/><metadata xmlns:d="https://loading.io/stock/"><d:name>bubble array</d:name><d:tags>bubble array,visualization,visualize</d:tags><d:license>by</d:license><d:slug>vsrt07</d:slug></metadata></svg>