<svg xmlns:xlink="http://www.w3.org/1999/xlink" xmlns="http://www.w3.org/2000/svg" viewBox="0 0 100 100" width="100"  height="100" ><path d="M68.9 5H5v24.2h90V5H68.9zM28.5 8.4v3.4H9V8.4h19.5zM9 25.8v-3.4h19.5v3.4H9zm23.5 0v-3.4h18.1V11.7H32.5V8.4h32.9v17.5H32.5zm59.1 0H68.8V8.4h22.8v17.4z" fill="#333"/><path d="M32.4 37.9H5v24.2h90V37.9H32.4zM9 58.7v-3.4h16.1V44.6H9v-3.4h19.5v17.5H9zm23.5 0V41.3h32.9v17.5H32.5zm59.1-17.4v17.5H68.8V41.3h22.8z" fill="#333"/><path d="M32.4 70.8H5V95h90V70.8H32.4zm33 3.4v3.4H32.5v-3.4h32.9zm-36.9 0v3.4H9v-3.4h19.5zM9 91.6v-3.4h19.5v3.4H9zm23.5 0v-3.4h32.9v3.4H32.5zm59.1-17.4v17.5H68.8v-3.4h10.1V77.5H68.8v-3.4h22.8z" fill="#333"/><metadata xmlns:d="https://loading.io/stock/">
<d:name>bullet chart</d:name>
<d:tags>bullet chart,performance,evaluation,dashboard,visualization,visualize,stephen few</d:tags>
<d:license>by</d:license>
<d:slug>z9r08f</d:slug>
</metadata></svg>