<svg xmlns:xlink="http://www.w3.org/1999/xlink" xmlns="http://www.w3.org/2000/svg" viewBox="0 0 100 100" width="100"  height="100" ><path d="M16 21.8h7.2v31.6H16V75h-3.8V53.4H5V21.8h7.2v-9.4H16v9.4zm23.9-2.2h-3.8v16h-7.2v33.5h7.2v12.8h3.8V69.1h7.2V35.6h-7.2v-16zM95 45.5h-7.2V28.1H84v17.4h-7.2V66H84v16h3.8V66H95V45.5zM67.6 30.7H71V78h-7.2v12.7H60V78h-7.2V30.8H60.1V9.3h3.8v21.4h3.7zm-4.3 43.6L60.1 71l-3.4-3.4v5.3l1.4 1.4h5.2zm4-6.7l-3.4-3.4-3.8-3.8-3.4-3.4v5.3l3.4 3.4 3.8 3.8 3.4 3.4v-5.3zm0-10.6l-3.4-3.4-3.8-3.8-3.4-3.4v5.3l3.4 3.4 3.8 3.8 3.4 3.4V57zm0-10.7l-3.4-3.4-3.8-3.8-3.4-3.4V41l3.4 3.4 3.8 3.8 3.4 3.4v-5.3zm0-10.6l-1.2-1.2H60.8l3.1 3.1 3.4 3.4v-5.3z" fill="#333"/><metadata xmlns:d="https://loading.io/stock/"><d:name>candlestick chart</d:name><d:tags>candlestick chart,bar chart,length chart,span,visualization,visualize</d:tags><d:license>by</d:license><d:slug>ybr48w</d:slug></metadata></svg>