<svg xmlns:xlink="http://www.w3.org/1999/xlink" xmlns="http://www.w3.org/2000/svg" viewBox="0 0 100 100" width="100"  height="100" ><path d="M22.9 37.6c-2.2-2.1-3.9-3.8-3.9-7.3V18.1c0-1.2-.8-2.2-2-2.2s-2 1-2 2.2v12.2c0 3.5-2 5.2-4.2 7.3C8.3 40 5 43 5 49.2c0 6.8 3.4 9.9 5.9 12.3 2.2 2.1 4.1 3.8 4.1 7.7v12c0 1.2.8 2.2 2 2.2s2-1 2-2.2v-12c0-3.9 1.6-5.5 3.8-7.7 2.6-2.5 5.8-5.6 5.8-12.3 0-6.2-3.1-9.2-5.7-11.6zm-6.7 17.3c-2.7 0-4.8-2.2-4.8-4.8s2.2-4.8 4.8-4.8 4.8 2.2 4.8 4.8-2.2 4.8-4.8 4.8z" fill="#333"/><path d="M56 56c-2.4-1.9-3.9-3.2-3.9-5.8V40c0-1.2-.8-2.2-2-2.2s-2 1-2 2.2v10.2c0 2.6-1.5 3.8-3.9 5.8-2.6 2.1-5.9 4.7-5.9 10.1 0 6 3.3 8.6 5.9 10.7 2.2 1.8 3.9 3.1 3.9 6.1v9.9c0 1.2.8 2.2 2 2.2s2-1 2-2.2v-9.9c0-3 1.7-4.3 3.9-6.1 2.6-2.1 5.9-4.8 5.9-10.7-.1-5.4-3.3-8-5.9-10.1zm-5.4 15.1c-2.7 0-4.8-2.2-4.8-4.8 0-2.7 2.2-4.8 4.8-4.8 2.7 0 4.8 2.2 4.8 4.8 0 2.6-2.1 4.8-4.8 4.8z" fill="#333"/><path d="M89.4 30.2c-2.3-2.5-4.3-4.5-4.3-8.8V7.2c0-1.2-.8-2.2-2-2.2s-2 1-2 2.2v14.3c0 4.3-1.7 6.3-4 8.8-2.6 2.9-5.6 6.1-5.6 13.1 0 7.6 2.9 11 5.6 13.9 2.3 2.5 4 4.5 4 9.2v14c0 1.2.8 2.2 2 2.2s2-1 2-2.2v-14c0-4.7 2-6.7 4.3-9.2C92 54.3 95 51 95 43.4c0-7-3-10.3-5.6-13.2zM84 48.5c-2.7 0-4.8-2.2-4.8-4.8s2.2-4.8 4.8-4.8c2.7 0 4.8 2.2 4.8 4.8s-2.2 4.8-4.8 4.8z" fill="#333"/><metadata xmlns:d="https://loading.io/stock/"><d:name>violin chart</d:name><d:tags>violin chart,statistics,distribution,histogram,visualization,visualize</d:tags><d:license>by</d:license><d:slug>xgxtu8</d:slug></metadata></svg>