<svg xmlns:xlink="http://www.w3.org/1999/xlink" xmlns="http://www.w3.org/2000/svg" viewBox="0 0 100 100" width="100"  height="100" ><path d="M50.9 28c12.6 0 22.8 10.5 22.8 23.5S63.5 75.1 50.9 75.1 28.1 64.5 28.1 51.5 38.3 28 50.9 28zm23.8 23.5c0 5.8 4.5 10.5 10.1 10.5S95 57.3 95 51.5 90.5 41 84.9 41s-10.2 4.7-10.2 10.5zm-8-23.3c0 6.9 5.4 12.6 12.1 12.6 6.7 0 12.1-5.6 12.1-12.6s-5.4-12.6-12.1-12.6c-6.6 0-12.1 5.6-12.1 12.6zm-18-10.4c0 5.5 4.3 10 9.7 10s9.7-4.5 9.7-10-4.3-10-9.7-10-9.7 4.5-9.7 10zm-25.7 0c0 7.1 5.5 12.8 12.4 12.8s12.4-5.7 12.4-12.8S42.2 5 35.3 5 23 10.7 23 17.8zM8.5 36.7c0 6.2 4.9 11.2 10.9 11.2s10.9-5 10.9-11.2-4.9-11.2-10.9-11.2-10.9 5-10.9 11.2zM5 60.9c0 6.7 5.2 12 11.6 12s11.6-5.4 11.6-12-5.2-12-11.6-12S5 54.2 5 60.9zm16.1 17.7c0 5.4 4.2 9.7 9.4 9.7s9.4-4.4 9.4-9.7c0-5.4-4.2-9.7-9.4-9.7s-9.4 4.4-9.4 9.7zm18.7 6.9c0 5.2 4.1 9.5 9.1 9.5s9.1-4.2 9.1-9.5c0-5.2-4.1-9.5-9.1-9.5s-9.1 4.3-9.1 9.5zm18.8-4.7c0 5.2 4 9.3 9 9.3s9-4.2 9-9.3-4-9.3-9-9.3-9 4.1-9 9.3z" fill="#333"/><metadata xmlns:d="https://loading.io/stock/"><d:name>bubble chart</d:name><d:tags>bubble chart,area chart,visualization,visualize</d:tags><d:license>by</d:license><d:slug>yn88zv</d:slug></metadata></svg>