<svg xmlns:xlink="http://www.w3.org/1999/xlink" xmlns="http://www.w3.org/2000/svg" viewBox="0 0 100 100" width="100"  height="100" ><path d="M15.2 83.2c5.4 0 9.8-4.4 9.8-9.8 0-2.8-1.1-5.2-3-7l13.6-22.6c.8.2 1.6.3 2.4.3 2.2 0 4.2-.7 5.8-1.9l9.1 8c-.5 1.1-.7 2.4-.7 3.7 0 5.4 4.4 9.8 9.8 9.8s9.8-4.4 9.8-9.8c0-2.6-1-5-2.7-6.7l12.8-23.1c.9.3 1.9.5 3 .5 5.4 0 9.8-4.4 9.8-9.8S90.3 5 84.9 5 75 9.4 75 14.8c0 2.8 1.2 5.3 3.1 7.1L65.4 44.8c-1.1-.4-2.2-.6-3.4-.6-2.5 0-4.8 1-6.5 2.5L46.8 39c.7-1.4 1.2-2.9 1.2-4.6 0-5.4-4.4-9.8-9.8-9.8s-9.8 4.4-9.8 9.8c0 3 1.4 5.7 3.5 7.5L18.3 64.2c-1-.3-2-.5-3.1-.5-5.4 0-9.8 4.4-9.8 9.8s4.4 9.7 9.8 9.7zM84.8 9.3c3 0 5.4 2.4 5.4 5.4s-2.4 5.4-5.4 5.4-5.4-2.4-5.4-5.4 2.4-5.4 5.4-5.4zM61.9 48.5c3 0 5.4 2.4 5.4 5.4s-2.4 5.4-5.4 5.4c-3 0-5.4-2.4-5.4-5.4s2.5-5.4 5.4-5.4zM38 28.9c3 0 5.4 2.4 5.4 5.4S41 39.8 38 39.8c-3 0-5.4-2.4-5.4-5.4s2.4-5.5 5.4-5.5zM15.2 68c3 0 5.4 2.4 5.4 5.4s-2.4 5.4-5.4 5.4-5.4-2.4-5.4-5.4 2.4-5.4 5.4-5.4z" fill="#333"/><g><path fill="#333" d="M5.4 86.8h17.8V95H5.4z"/></g><g><path fill="#333" d="M29.2 62.8H47V95H29.2z"/></g><g><path fill="#333" d="M76.8 50.4h17.8V95H76.8z"/></g><g><path fill="#333" d="M53 72.7h18V95H53z"/></g><metadata xmlns:d="https://loading.io/stock/"><d:name>combo chart</d:name><d:tags>combo chart,line chart,bar chart,column chart,visualization,visualize</d:tags><d:license>by</d:license><d:slug>tvtnat</d:slug></metadata></svg>