<svg xmlns:xlink="http://www.w3.org/1999/xlink" xmlns="http://www.w3.org/2000/svg" viewBox="0 0 100 100" width="187"  height="187" ><path d="M95 50c0 23.8-18 43.4-42 44.9V79.7c15.3-1.6 27-14.5 27-30.2S68.3 20.8 53 19.2V5.1C77 6.6 95 26.2 95 50zm-75-.5c0-4.2.9-8.3 2.4-12L9.7 30.1C6.7 36.3 5 43.1 5 50c0 23.8 18.6 43.4 42 44.9V79.6c-15.4-1.5-27-14.4-27-30.1zm27-30.2V5.1c-13.4.9-26.7 8.3-34.5 19.8l12.7 7.3c4.9-7.1 12.4-12 21.8-12.9z" fill="#333"/><metadata xmlns:d="https://loading.io/stock/">
<d:name>donut chart</d:name>
<d:tags>donut chart,circle chart,pie chart,pizza,proportion,ratio,percent,compare,visualization,visualize</d:tags>
<d:license>by</d:license>
<d:slug>7lkse8</d:slug>
</metadata></svg>