<svg xmlns:xlink="http://www.w3.org/1999/xlink" xmlns="http://www.w3.org/2000/svg" viewBox="0 0 100 100" width="100"  height="100" ><g><path fill="#333" d="M42 8l.3-.2.2-.1h-.3l-.2.1h-.2l-.1.1-.3.1-.1.1h.3z"/><path fill="#333" d="M22.7 24.2l.2-.3-.2.1-.1.2v.5l.1.1.3-.2-.2-.1z"/><path fill="#333" d="M41.5 8.4l.3-.1.1-.1v-.1l-.3.1h-.3l-.1.1.1.1z"/><path fill="#333" d="M40.9 8.6l.2-.1v-.1h-.2l-.1.1v.1z"/><path fill="#333" d="M43.2 8.5l-.3.1.1.2-.1.1h-.3l.1-.1v-.1h-.3l-.3.2h-.3l-.2-.1h-.2l-.2.2-.4.2.3-.3H41l-.5.1-.2-.1-.3.1-.1.2-.1.1.2.2-.2.2.5.1.2-.1-.1-.1h1.2l.4-.2h.1l.1-.1.1.2h.2l.2.1.6-.1h.8l-.1-.1h1l.1-.1v-.4l-.2-.1h.1l-.1-.2H44.3l.2-.1-.3-.1h-.1v-.1h-.4l-.2.1z"/><path fill="#333" d="M26.6 22.7l-.4.3-1.1.7-.5.2v.3h-.3l-.1.2.4.4.3.2.1.3-.4.2.2.1.7-.3v.1l-.4.5.1.2.1.1.5-.5.2-.4.2-.4H26l.4-.4-.1-.4-.2.1-.1-.3.2-.2v-.2l-.3.1.5-.4.5-.3.2-.1-.1-.1z"/><path fill="#333" d="M24.4 23.1l.1-.1v-.4l-.1-.4h-.1l-.1.4.1.4z"/><path fill="#333" d="M39.7 8.5l.3-.1.4-.1h-.1l.1-.1h-.2l.1-.1-.5.1-.1.1h-.4l-.1.1v.2z"/><path fill="#333" d="M42.2 8.3v.1h-.5l-.3.1-.1.2v.1h.8l.2-.1.5-.1.1-.1.2-.1.4-.1v-.1h-.4l-.3-.1-.3.1z"/><path fill="#333" d="M37.8 10.3l-.4.2v.1h.1V10.9l.2-.1.3-.3.1-.2-.1-.1z"/><path fill="#333" d="M30.9 13.2h.2l.2-.2-.1-.1.4-.1.2-.3.2-.2.1-.2H32l.3-.2.1-.1-.6.2-.6.3h-.3l.1.2-.4.2h.7l-.3.2z"/><path fill="#333" d="M39.2 8.8l.3-.1h-.4l-.3.1-.1.1h.3z"/><path fill="#333" d="M30.2 13.1l-.2.2v.1l.4-.1h.1v-.2z"/><path fill="#333" d="M34.6 14.3l-.1-.2.4-.5v-.2l.2-.5h.5l.5-.4.2-.3.2-.3.3-.3-.2-.1.3-.2.2-.2.3-.4h-.3l-.2-.1.4-.1.7-.4-.3-.1-.6.1.5-.3h.4l-.1-.2h-.3l-.6.1-.8.2v.2h-.3l-.3.1-.1.2-.2.3-.1.5.1.1h.3l-.2.2-.1.1-.3.3h-.2l-.2.4-.2.3-.2.1-.3.2-.7.2-.4.2-.2.1-.2-.2-.1-.2-.6.1-.1.3.2.3.2-.1-.2.4-.2.4h-.2l-.3.4-.1.5v.6l.2-.2.3-.4.4-.6-.3.7v.3l.5-.3.6-.5.1-.1.1-.4.3-.3.4-.2.2.1-.5.5-.1.3 1-.2z"/><path fill="#333" d="M38.6 9.8l-.1.2h.4l.3-.1.3-.1v-.2l-.1-.1-.1-.1v-.1l.1-.1.1-.1.2-.1.3-.1.2-.1.1-.1.2-.1.1-.2h-.2l-.3.1-.1.2-.4.1-.3.1-.4.1-.3.3-.1.2v.1z"/><path fill="#333" d="M30 13.8l-.2.2v.1l.3-.2.1-.1v-.1z"/><path fill="#333" d="M33.8 12.6l.1-.1.3-.1.2-.2h-.2l-.4.1-.3.2.1.1z"/><path fill="#333" d="M37.5 9.4h.6l.2-.2.1-.2-.2-.1-.2.1h-.4l-.6.2-.1.2.5-.1z"/><path fill="#333" d="M67.1 39l.5-.4-.1-.1v-.1l.2-.4-.4.3-.4.1v.2l-.3.1.2.3z"/><path fill="#333" d="M53.5 25.9l.2-.5-.2-.4-.6.3.1.3z"/><path fill="#333" d="M52.9 35.6l.2-.6-.2-.6-.3.3-.1.2.2.5z"/><path fill="#333" d="M47.8 26.1l-.3-.8v-.1l-.5-.1.5-.5.1-.6h-.4l-.4.1.5-.7h-.8l-.4.5-.2.6.1.4-.1.6.3-.3.1.2-.2.3.1.2.5.1v.1l.3.4-.2.4-.6-.1-.1.4.2.4-.6.2.1.3.7.1h.1l-.5.2-.8.7.3.1.3-.2.5.1.3-.3.2.1.8-.2.7.1.4-.4-.2-.3.3-.2.1-.5-.6-.1-.1-.3-.2-.8z"/><path fill="#333" d="M62.4 39.7l.8-.2.1-.3-.3.2v-.2h-.5l-.4.2-.4-.3v.4h.7z"/><path fill="#333" d="M35.4 18.8l.3-.4.7-.3.5-.3.3-.3.5-.3h1l.8-.1.8-.5.4-.1.2.1h.8l.9-.3.9-.3-.3-.1-.5-.1.4-.2.2-.4v.3l.1.3h.4l.2-.5-.1-.3-.2-.2.2-.1.3.3.1-.2v-.4h.6l.2-.1-.1-.3.4.1v-.5h.2l.2-.4-.1-.3.4-.1.2.1v-.3l.3-.5.3-.3.4-.3H47h.4l.2-.1.6-.2V11l-.2-.1h-.6l-.4.1.3-.2v-.1l-.3.1-.1-.2-.3-.1v-.1l.5.1.3.1.3-.1-.2-.4-.5-.2-.3-.1-.2.1-.2-.1-.6.1-.2.1-.2.2.1-.1-.1-.1.1-.2-.5.1.2-.1-.2-.2h-.3l-.2-.1-.3.2-.2-.1h-.6l-.3.1-.1.2h-.8l-.5-.2-.3.1-.2.3.1.3-.2-.1-.3-.1-.4.3-.1.1.1.2.2.1.1.2-.1.4-.3.1-.1.2-.6.5-.3.3-.2.2-.7.2v.2h.2l-.1.2-.1.4-.2-.2-.1-.1-.4.2-.4.2v.3h.8l-.5.3-.3.1h-.5l-.8.4-.1.3-.5.2-.3.6-.5.4-.2.4-.4.8-.3.6-.1.4.4.2v.7l.4.1.6-.5z"/><path fill="#333" d="M45.5 26.5l.3-.5-.4-.4h-.3l-.4.3-.7.4.1.7-.5.7.6.2.9-.3.4-.6z"/><path fill="#333" d="M44.5 19.1l-.1-.4.2-.4-.5-.1-.6.2-.3-.2-.5.2-.3-.4H42l-.4.3.5.3-.1.1h-.5l.4.4-.4.2.8.4.3.1h.3l1.1-.3z"/><path fill="#333" d="M56.1 38.8l.5.2.1-.4-.1-.2.1-.6-.4.1-.6.1H55v.4l.8.3z"/><path fill="#333" d="M52.6 37.3l.2.2.2-.3h.3v-1l-.4-.5-.2.3-.4-.1.2.5z"/><path fill="#333" d="M80 71.4l-.1-.2-.2-.2-.2.4-.1.4-.3.5-.2.1v.2l-.2.4-.5.6-.4.5h-.3l-.2.2-.3.3-.3.1-.2.4-.2.4-.1.6V76.7l-.1.4-.4.6-.1.2-.2.1-.3.5v.8l-.1.5v.2l.3.1h.3l.5-.4.5-.3.4-.7.5-.9.7-1.3.5-.9.4-.8.1-.6.2-.2.1-.3v-.4l.2-.2v.3l.2-.2.1-.4-.1-.2.1-.8z"/><path fill="#333" d="M52.8 12.3l-.3.1.2.2-.1.1.4.1.2-.3h-.3z"/><path fill="#333" d="M52.1 11.8l.1.1h.4l.3-.1v-.3l-.3-.1h-.3l-.1.1-.2-.1-.3.2.2.2z"/><path fill="#333" d="M51.4 12.7l.3.1-.1.1.4.3h.2v-.4l.1-.1-.1-.4.3-.2-.6-.2-.2-.2-.2.1v.1h-.2l-.1-.1-.3.2.1.3z"/><path fill="#333" d="M11.8 42.8v-.2l-.1-.2-.2-.2-.1.3.1.2.2.2z"/><path fill="#333" d="M54.9 10.9l.2.1.1-.1-.1-.1v-.1h.1l-.1-.1h-.2v.1l.1.1-.2-.1h-.1l-.1.2.2-.1z"/><path fill="#333" d="M57.2 8.8H58.1l.2-.1-.1-.2-.6-.1h-.7l-.4.1.2.1z"/><path fill="#333" d="M58.9 8.7l-.4-.4-.3-.1-.3.1-.1.1h.1z"/><path fill="#333" d="M58.7 11.1v.2l-.1.3v.4l.1.4.2.1.2.5h.2l.2.5.3.2v.2l.3.2h.4l.3.1.5-.2.1-.1-.8-.2-.5-.3-.3-.5-.4-.4-.2-.6v-.8L59 11l-.3-.1z"/><path fill="#333" d="M11.6 49.4v.3l-.1.1v.1l.3.2.1-.6-.1-.1z"/><path d="M94.8 45.1l-.8-4.9-1.2-4.8-1.7-4.7-2.1-4.4-2.5-4.2-2.9-3.9-3.3-3.5-3.6-3.2-3.9-2.7-4.2-2.3-4.4-1.8-4.6-1.3-4.7-.8-4.9-.3-4.6.3-4.7.8-4.6 1.3-4.4 1.8-4.2 2.3-4 2.7-3.7 3.1-3.3 3.5-3 3.9-2.6 4.2-2.1 4.4-1.7 4.6L6 40l-.7 4.9L5 50l.2 4.9.8 4.9 1.2 4.8 1.7 4.7 2.1 4.4 2.5 4.2 2.9 3.9 3.3 3.5 3.6 3.2 3.9 2.7 4.2 2.3 4.4 1.8 4.6 1.3 4.7.8 4.8.3 4.6-.3 4.7-.8 4.6-1.3 4.4-1.8 4.2-2.3 4-2.7 3.7-3.1 3.3-3.5 3-3.9 2.6-4.2 2.1-4.4 1.7-4.6L94 60l.7-4.9.3-5.1-.2-4.9zM76.2 34l-.5.5-.7.1-.4-.2h-.5l-.4-.5-.2-.3.1-.2v-.3l-.2-.6.3-.2-.2-.1h-.2l-.4-.4-.4-.3-.8-.6-.2-.5-.7-.5v-.8l.3-.3-.1-.5.3-.3.2-.5h.4l.3-.2.3.4.3.7h-.4l-.2.2.3.5-.4.1.1.2.3.1.5.5h.6l.2.2.1.3.1.2.4.4-.2-.5.2-.3.3.3.5.3-.2.4h-.4l.2.6.3-.1.2.5.4.1.3.8.3.5-.1.3zM61.3 8.4l-.3-.1h-.1l.4.1zm28.8 34.1l.1.8v-.1l-.1-.7zM37.7 8.7h.2-.2zm52.8 45.8l-.7 4.5-1.1 4.4-1.5 4.2-1.9 4.1-2.3 3.8-2.7 3.5-3 3.2-3.3 2.9-3.6 2.5-3.8 2.1-4 1.6-4.1 1.2-4.2.7-4.3.2-4.2-.2-4.2-.7-4.1-1.2-4-1.6-3.8-2.1-3.6-2.5-3.3-2.9-2.8-3-.2-.5-.2-.3-.2-.4.1-.4.3-.2.4.1.2-.1.6.1.5.2v-.3l.3-.1-.1-.6.3-.6-.1-.8.1-.2v-.4l-.1-.9-.3-1.2.1-.4h.1l.3-.4.2-.6.7-.7.2-.3.1-1.1-.1-.5-.3-1-.2-.3-.5-.2-.4-.4-.8-1.1-.8-.9-.8-.3-1-.8h-.6l.1-.4-.3-.5-.7-.7-.6-.6-.3.3V61l-.8-.6-.2-.3.3-.4v-.5l-.2-.3-.2-1.4-.1-.5h-.1l-.1-.3-.4-.9-.2-.4-.1-.2-.4-.5-.3-.2-.1.1-.4-.5-.1-.4-.2-.5-.1-.1v-.4l-.2-.7-.1-.3-.1-.3-.2-.1v-.6l-.2-.6-.2-.3v-.4h.3l-.4-.4-.4-.3v.2l-.2.1-.2-.3-.1-.5-.3-.2-.2-.3v-.3l-.1-.6-.1-.2V46l-.1.1v.4h-.1v-1.1l.7-4.5.1-.4.1.2.1.1.1.3-.1.2v.2l.2-.4h.1v.2l.1.1.1-.1.1.1.1.1v.3l.2-.2v-.4l-.1-.2.1-.2-.1-.1v-.3l-.1-.1v-.4H11l-.1.1-.1-.4-.1-.2-.1.1.1.3-.1.3v.4l-.1.1-.1-.3.9-3.8 1.5-4.2 1.8-3.7.1-.1.1.1.3-.2.2.1.4-.3.4-.7.1-.2v-.1l.4-.6.1-.4v.3l.3-.4.2-.2-.4.5-.1.4-.3.3.4-.4.2-.2.2-.2.1-.2.2-.4-.1.2v.1l-.1.2.4-.3.4-.4v-.1l.2-.1-.1.1.1.1.3.1.1-.2-.3-.2h.2l.1.1.1.1.2.1.1.1.2.1.1-.2.1-.2-.2.2-.1-.1.2-.4.3-.3.1-.1.4-.2.3.1h.3l.4-.1.1-.2.3.2.3.3-.7.3-.4.5.1.2.6-.2h.4l.8.1.6-.2v-.3l.3-.4-.8.3-.4-.2v-.6l.3-.5.5-.7.5-.2.1-.4-.3-.2-.8.1-.9.4-.2-.1.6-.3.9-.4h.4l.5-.2.2.2.3.3.3.5.4.2.7-.2.5.1.3-.1.4-.1.6-.6.1-.3-.1-.2.4-.5v-.3l-.2-.4.1-.4.1-.5.4-.3.5-.8.6-.8.4-.5-.4.1-.8.4h-.5l.3-.4v-.2l.7-.6.5-.4.2-.4.2-.2.3-.4.1-.3h-.2v-.2l.1-.3h-.2l-1 .7-.6.4-.7.2-.4.5-.5.5-.4.3-.5.2-.5.1-.4-.1-.3.4-.9.8-.6.4h-.2l.5-.7.6-.7.6-.5.5-.4v-.5l.3-.4.2-.3.3-.3 3.3-2.3.9-.5v.1l.4-.2h.3v.2l.4-.1.3-.1.6-.1.3-.1-.2.2.1.1h.5l.3-.1.4-.2.4-.1.3-.1.3-.3.1-.2v-.2l-.5.3-.6.1-.5.1.5-.3.5-.2.5-.3h-.5l.7-.2.2-.2h.3l.8-.4.3-.2.2-.2h-.5l-.8.2-.3.2-.5.4-.7.2v-.1l.6-.2h.1l.3-.1.1-.1 1.2-.5.2.1.8-.3.4-.2h.3l.2-.1v-.1l.2-.1h-.2l3.3-.9h.7l.1.1.2-.1h.1l3.3-.5 4-.5 4.2.2 4.2.7 1.2.3-.2.2.1.2.2.1h-.3v.1l-.2-.1-.2.1.4.2.3.1.3.1v.1l.4.2h-.2l.1.2.2.1.1.2.3.3v.1l.4.2.4.1v.2l-.1.2.1.2.7.3.6.2h-.5l-.1.2.2.3.5.2h-.2l-.6-.3-.3-.1v.1l.5.2.3.4.6.2.6.4.4.2.2-.1.4.3.4.1.2.3.3.2.1.2.2.2-.2.1-.7-.8-.4-.3-.5-.1-.9-.5-.5-.2-.3-.1-.5-.4-.4-.2-.4.1.1.1.5.4.4.5.2.1.6.2.3.2.2-.1.1.1.5.1.3.3-1.2-.1H63l-.7.2.1.2.5.1.2.4-.5-.2v.3l-.3.2.1.2-.3.1-.1-.3h-.2l-.2.7-.2.4.3.3-.2.2-.3-.1-.3-.3.2-.2H60l.4.3.2.3.4.2.2.4-.4-.1h-.2l-.2.7.5.3-.1.2-.9-.2v.3l.3.2.1.3H60l-.5-.1-.4-.6-.1-.2-.7-.3.1-.1 1.4.1.3-.3.1-.4-.3-.3-.4-.2-1.3-.3h-.7l-.6-.2-.1.2-.4-.2.2-.2-.9-.2-.3.2H55l-.2.5h-.4l-.5.3-.5.8-.4.4-.5 1.1-.4.8-.6.6-.8.7-.3.4.1 1.4.2.7.6.3.5-.2.7-.8.3.4.4.9.4.7.2.6.5-.1.1-.5h.5l.1-.6-.1-1.1.4-.2.2-.7-.5-.3-.4-.4v-.9l.5-.6.3-.5-.2-.3.1-.4.4-.2.5.2.1.2-.1.2-.2.6-.2.4v.4l.3.5.1.6.4.2.3.3.5-.2.5-.3.6-.2.5.2-.2.4-.4.1H58l-.4.2-.4.2.2.4.3.2.1-.1.1.4.1.5h-.3l-.5-.4-.2.2-.1.4.1.5.2.5-.5.3v.3h-.4l-.1-.2-.4-.1-.5.5-.6.4-.3.2-.2-.2-.5-.2-.2.2-.5.1v-.2l-.5-.1v-.3l-.1-.3.3-.5.1.1.1-.3-.2-.1-.1-.2.1-.2v-.3l-.3.2-.1.2-.4.1-.1.2-.1.2.1.7.2.4v.4l.1.3-.3.3-.1-.1h-.4l-.1.1h-.4l-.6.3-.4 1-.2.2-.4.1-.4.1-.2.6-1.2.5-.4-.3.1.8-.7-.4-.6.1v.5l.7.3.3.4.5.8-.2 1.5-.3.4h-1.3l-.6-.2h-.7l-.6-.2-.8.5.2.3-.1.5v.3l.1.3v.3l-.2.4-.1.3-.3.3-.1.5.1.3.2.1v.5l-.2.6.3-.1.3.1.3-.2.5.2.1.5.2.3.3.1.3-.3.4-.2h1.4l.5-.6.5-.1.2-.5.4-.3-.2-.4.2-.6.4-.4.1-.3.7-.1.5-.5V35l.1-.5.8-.2 1.1.2.5-.4.2-.1.3-.4.2-.1.5.2.3.1.2.7.4.4.5.5.5.3h.4l.3.3H56l.2.3.2.1.2.4.3.4-.1.2-.1.4v.2l.2-.1.2-.7.2-.1v-.4l-.4-.2.2-.5.5.1.4.3.1-.3V36l-.5-.3-.4-.2-.5-.2.1-.2-.2-.2h-.4l-.7-.6-.3-.6-.5-.3-.2-.4v-.2l-.1-.4.4-.3.4.1-.1.1v.3l.2.2.1-.3.3.1v.2l.3.3v.2l.5.5.5.2.4.2.5.2.3.1.2.2h.1l.1.1v.7l.1.4.3.2v.2h.1l.1.2.4.4.3.3.2.5.3.6.5.3.4-.1-.3-.5.3-.1-.2-.4.6.1-.1-.4-.4-.2-.4-.3.2-.2-.3-.3-.2-.4.1-.2.4.3h.3l.2-.2-.5-.3.6-.3h.6v.2l.3.3.3-.5.2-.3.6-.2v-.2l-.5-.2-.1-.2-.3-.4V33l.2-.3-.1-.9h.2l.2-.2-.2-.1.2-.6v-.4l.4-.2.1.3h.8l.2.1-.3.3v.2l.6.1v.4l.3.1.5-.6.4-.2v-.3l-.4.2-.3-.1-.2-.4.3-.4.4-.1.2-.3.3-.1.3-.2.1.1-.5.5.4.2-.1.7-.3.2.6.3.6.1.8.4.3.2h.3l.4.2.3.4.1.3-.4.5-.4.1-.5.3-.8-.1-1-.3-.8.2-.5.3-.4.6-1 .1-.1.6-.8.2-.4.8.4.3-.3.5.5.3.5.7.6-.1.6.3.4-.2v-.3l.6-.1.5.3.8-.3.2-.5.5.1.3-.1-.1.3.3.3v.3l.2.6-.1.6v1.5l-.1.4-.1.3-.2.3-.4.1-.5-.1-.1.3-.2-.4h-.4l-.5.2-.2.2-.4.3-.3-.1-.6-.1H64l-.8.1-.2-.2h-.6l-.2-.1H62l-.3-.3h-.8l-.4.2-.4.4-.1.4.2.6-.2.4-.3.2-.7-.3-1-.3-.6-.1-.4-.7-.9-.3-.4-.1-.3.1-.7-.2-.2-.1-.2-.4H54l-.2-.4.4-.4v-.7l-.2-.2v-.4l.3-.4-.1-.1-.5.3v-.4l-.4-.1-.7.4h-.4l-.2-.1h-.6l-.6.3-.3-.1-1 .1-1 .1-.6.2-.4.3-.7.1-.6.4h-.3l-.6-.2h-.6l-.3-.4H44l-.2.5-.5.8-.5.3-.7.3-.4.4-.1.4-.3.6v1l-.6.6-.3.2-.6.5h-.6l-.4.3-.5.7-.5.2-.3.5-.1.4-.2.4-.2.2-.4.4-.3.6v.3l-.3.3-.3.2-.1.4-.1.3.3.4.1.4-.1.4V52.9l-.2.7-.2.4v.4l-.2.4-.2.4-.3.1.3.3.2.7-.1.3.1.6v.2l.2.2v.1l.1.2.3.1.4.4.2.2.1.2.1.4.2.2.2.1.3.3.3.5.1.6.1.3.4.5.5.4.2.1.5.5.6.5.6.6.7.4H41.6l.7-.2.5-.2.9-.1h.5l.5.2h.3l.7.2.7-.2.4-.2 1.2-.4.6-.1.6-.1H50.5l.5.5.2.5.4.5h.6l.3-.2h.3l.8-.3v.2l.2.1.2.3.3.1.3.5-.4.7-.2.9.1.1-.1.5-.2.5-.2.2v.2l.5.7.5.6.8.7.6.7.2.5.1.2-.1.1.4.4.1.4.2.6-.2.3v.1l.2.4.2.4.2.2v.4l-.3.8-.2.3-.4.4-.2.3-.3.6-.1.3-.3.6-.1.5v.9l.5.5.1.4.3.7.3.4.2.2.1.3v.7l.1.8.1.4.1.5.2.3.4.3.4.6.2.4.3.4.2.3-.2.1.1.3-.1.3.1.1v-.1l.2.2h.2l.2.1h.3l.4-.2.5-.1.7-.3h.2l.4-.1h.6l.3-.1h.3l.1-.1.3-.1.7-.3.5-.3.5-.4.8-.6.4-.4.2-.3.3-.3.1-.1.5-.3.2-.3.2-.4.3-.4.1-.3h-.1v-.2l.3-.3.8-.5.5-.3.3-.3.2-.3-.1-.1.2-.3.2-.6-.1.1V79l.1-.4.3-.2.5-.5.3-.2.8-.8.7-.5.6-.4.4-.5.3-.5.3-.5v-.3l.1-1v-.6l.1-.7v-.3l-.2-.1-.2-.6-.2-.4.1-.3V70l.2-.5v-.2l-.4-.1v-.4l.3-1 .3-.3.1-.5.2-.3.1-.5.2-.1.2-.3.4-.4.1-.2.1-.4.6-1.1.5-.7.8-1 .8-1 .6-1.3.4-1 .4-1.3.2-1.1.2-1v-.9l.1-.3-.1-.4V53l-.2.1-.2.4-.3.2-.2.3-.2.1-.3.1-.2.2-.2.2-.5.4-.6.3-.5.4-.3.1-.3-.2-.1-.3-.2-.1-.3-.1.3-.3v-.3l-.2-.2-.3-.1-.2-.2-.4-.3-.4-.3-.9-.5-.4-.3-.3-.7-.4-.9-.4-.2-.3-.1-.3-.9-.2-.8.1-.2-.3-.7-.2-.1-.8-.5-.1-.5.1-.2-.7-.7-.3-.4-.3-.4-.7-1.1-.5-.7-.4-.8v-.1l.7 1 .3.3.2.2.1-.1.1-.4V43l.1-.3v1.1l.3-.1.4.5.5.5.4.5.2.1.2.4v.2l.3.4.3.1.3.2.5.8.1.5.2.5.5.6h.3l.5.4.3.6.4.6.3.2.1.3.2.2.1.3.1.3v.2l.1.3-.1.1.2.3.2.5.1.2v.4l.2.4.4-.1.2-.2.3-.1.1-.2.1-.1.1-.2.1-.1.4-.2.3-.3.3-.4h.2l.2-.1.4-.7.7-.7.4-.5v-.7l.3-.4.2-.1.3-.4.3-.1.2-.3-.1-.3.1-.3.3-.1.1-.2v-.4l.2-.4.2-.1v-.1l-.2-.5V45.4l.2-.1v-.6l.1-.3v-.7l-.1-.2h-.2l-.1-.5-.3-.3h-.3l-.3.1-.3-.1-.4-.4-.3-.6v-.2l-.1-.3h-.1v.8l-.2.6-.1.7-.3.1-.4.2-.3.3-.1-.2-.1.1-.2-.2v-.5l-.1-.4-.2-.2-.1.1v.4l.2.5-.1-.2-.1-.2-.3-.1-.1-.2v-.3l-.1-.3-.5-.2-.2-.2-.3-.1-.4-.6-.3-.5v-.2l-.2-.3.3-.1.1-.4.4.1.2-.2.7.8.5.7h.5l.6.4h.6l.3-.6.3-.3h.2l.5.8.5-.2.5-.1.8-.2.5-.4.5-.4.5-.6.5.4.3.4h.3l.6.3.2.2v.4l.7.5.2-.1.2-.8.3.6.3.9.4.9.5 1.3.5.8.2.4.3.8.3.6.1.2.2.6.3.9.3.4v.8l-.5 4.6zm-25.6 6l-.5-.3h.1l.4.3z" fill="#333"/></g><metadata xmlns:d="https://loading.io/stock/">
<d:name>globe</d:name>
<d:tags>globe,world map,atlas,earth,planet,visualization,visualize</d:tags>
<d:license>by</d:license>
<d:slug>f00uly</d:slug>
</metadata></svg>