<svg xmlns:xlink="http://www.w3.org/1999/xlink" xmlns="http://www.w3.org/2000/svg" viewBox="0 0 100 100" width="100"  height="100" ><path d="M95 14.5C95 9.3 90.7 5 85.5 5c-5.1 0-9.3 4.1-9.5 9.2l-44.8 5.6c-1-4.2-4.8-7.3-9.2-7.3-5.2 0-9.5 4.3-9.5 9.5 0 4.4 3.1 8.2 7.2 9.2l-7 45C8.4 77 5 80.9 5 85.5c0 5.2 4.3 9.5 9.5 9.5 4.6 0 8.5-3.3 9.3-7.7l41.1-4.9c1.6 3 4.8 5.1 8.4 5.1 5.2 0 9.5-4.3 9.5-9.5 0-3.8-2.3-7.1-5.5-8.6l9.9-45.5c4.4-.8 7.8-4.7 7.8-9.4zM85.5 9c3 0 5.5 2.5 5.5 5.5S88.5 20 85.5 20 80 17.5 80 14.5 82.5 9 85.5 9zM19.8 77.6c-.9-.6-1.9-1.1-3-1.3l7-45c1.2-.2 2.4-.7 3.4-1.4L44.6 43c-.5 1.2-.8 2.4-.8 3.8 0 1.8.5 3.5 1.4 4.9L19.8 77.6zm28-30.8c0-3 2.5-5.5 5.5-5.5s5.5 2.5 5.5 5.5-2.5 5.5-5.5 5.5-5.5-2.5-5.5-5.5zm11.7-7.2c-1.7-1.4-3.8-2.3-6.2-2.3-2.5 0-4.7.9-6.4 2.5L30 27.1c.6-1 1.1-2.1 1.3-3.3l45.4-5.6c.3.8.8 1.5 1.3 2.2L59.5 39.6zM16.5 22c0-3 2.5-5.5 5.5-5.5s5.5 2.5 5.5 5.5-2.5 5.5-5.5 5.5-5.5-2.5-5.5-5.5zm-2 69c-3 0-5.5-2.5-5.5-5.5s2.5-5.5 5.5-5.5 5.5 2.5 5.5 5.5-2.5 5.5-5.5 5.5zm49.3-13v.5l-40.1 4.7c-.2-1-.6-1.9-1.2-2.8l25.4-25.9c1.5 1.1 3.4 1.7 5.4 1.7.9 0 1.9-.1 2.7-.4l10.6 15.3c-1.7 1.8-2.8 4.2-2.8 6.9zm9.5 5.5c-3 0-5.5-2.5-5.5-5.5s2.5-5.5 5.5-5.5 5.5 2.5 5.5 5.5-2.5 5.5-5.5 5.5zm0-15c-1.1 0-2.2.2-3.2.6L59.5 53.9c2-1.7 3.3-4.3 3.3-7.2 0-1.4-.3-2.8-.9-4l19.2-19.9c.6.3 1.3.6 2 .8l-9.8 44.9c.1 0 0 0 0 0z" fill="#333"/><metadata xmlns:d="https://loading.io/stock/">
<d:name>social network</d:name>
<d:tags>social network,network,graph,relationship,connection,link,visualization,visualiz</d:tags>
<d:license>by</d:license>
<d:slug>ixpfrb</d:slug>
</metadata></svg>