<svg xmlns:xlink="http://www.w3.org/1999/xlink" xmlns="http://www.w3.org/2000/svg" viewBox="0 0 100 100" width="187"  height="187" ><path d="M5 5h18.9v18.9H5V5zm47.4 0h18.9v18.9H52.4V5zm3 15.9h12.9V8H55.4v12.9zM5 28.7h18.9v18.9H5V28.7zm3 15.9h12.9V31.7H8v12.9zm20.7-15.9v18.9h18.9V28.7H28.7zM5 76.1h18.9V95H5V76.1zM8 92h12.9V79.1H8V92zm20.7-39.6h18.9v18.9H28.7V52.4zm3 15.9h12.9V55.4H31.7v12.9zM95 5v18.9H76.1V5H95zm-3 3H79.1v12.9H92V8zM45.7 5h1.9v18.8H28.7V5H45.7zm-14 7l4-4h-2.8l-1.1 1.1V12zm11-4h-2.8l-8.2 8.2V19l11-11zm1.9 9.4l-3.5 3.5h2.8l.7-.7v-2.8zm0-7.1L34 20.9h2.8l7.8-7.8v-2.8zm24.8 18.4h1.9v18.8H52.5V28.7h16.9zm-14 6.9l4-4h-2.8l-1.1 1.1v2.9zm11-3.9h-2.8l-8.2 8.2v2.8l11-11zm1.9 9.4l-3.5 3.5h2.8l.7-.7v-2.8zm0-7.1L57.7 44.6h2.8l7.8-7.8V34zM22 52.4h1.9v18.8H5V52.4h17zM8 59.3l4-4H9.1L8 56.5v2.8zm11-3.9h-2.8L8 63.6v2.8l11-11zm1.9 9.4l-3.5 3.5h2.8l.7-.7v-2.8zm0-7.1L10.3 68.3h2.8l7.8-7.8v-2.8z" fill="#333"/><metadata xmlns:d="https://loading.io/stock/"><d:name>cohort chart</d:name><d:tags>cohort chart,heatmap,visualization,visualize</d:tags><d:license>by</d:license><d:slug>u6lh4t</d:slug></metadata></svg>