<svg xmlns:xlink="http://www.w3.org/1999/xlink" xmlns="http://www.w3.org/2000/svg" viewBox="0 0 100 100" width="100"  height="100" ><path d="M80.9 56.1c4.5 0 8.1-3.6 8.1-8.1s-3.6-8.1-8.1-8.1c-2.3 0-4.4 1-5.8 2.5l-5.3-3 6.2-6.2c1.4 1 3.1 1.7 4.9 1.7 4.5 0 8.1-3.6 8.1-8.1s-3.6-8.1-8.1-8.1-8.1 3.6-8.1 8.1c0 1.2.2 2.3.7 3.2l-7.4 7.3-39.2-22.1c.2-.7.3-1.4.3-2.1 0-4.5-3.6-8.1-8.1-8.1S11 8.6 11 13.1s3.6 8.1 8.1 8.1c2.3 0 4.4-1 5.8-2.5l38.3 21.6-26.5 26.3-9.6-1.7c-.3-4.2-3.8-7.5-8.1-7.5-4.5 0-8.1 3.6-8.1 8.1s3.6 8.1 8.1 8.1c3.3 0 6.1-2 7.4-4.8l6.8 1.2-10 9.9c-1.2-.7-2.6-1.2-4.1-1.2-4.5 0-8.1 3.6-8.1 8.1s3.6 8.1 8.1 8.1 8.1-3.6 8.1-8.1c0-1.5-.4-2.9-1.1-4.1l12-11.9L72.9 77c.3 4.2 3.8 7.5 8.1 7.5 4.5 0 8.1-3.6 8.1-8.1s-3.6-8.1-8.1-8.1c-3.3 0-6.1 2-7.4 4.8l-32-5.6 25.3-25.1 6.3 3.6c-.2.7-.3 1.4-.3 2.1-.1 4.4 3.5 8 8 8z" fill="#333"/><metadata xmlns:d="https://loading.io/stock/"><d:name>slopegraph</d:name><d:tags>slopegraph,line chart,direction,visualization,visualize,change</d:tags><d:license>by</d:license><d:slug>om6tge</d:slug></metadata></svg>