<svg xmlns:xlink="http://www.w3.org/1999/xlink" xmlns="http://www.w3.org/2000/svg" viewBox="0 0 100 100" width="100"  height="100" ><path d="M32.8 58.3V95h-5.1V58.3c-9.1-1.2-16.2-8.4-17.2-17.5h21.9v-22c10 1.1 17.7 9.5 17.7 19.8 0 10.1-7.6 18.4-17.3 19.7zm-3.6-39.5C19 19.3 11 27.4 10.4 37.5h18.7V18.8zm60.4-1.2c0-6.5-4.9-11.9-11.3-12.6v14H64.4c.6 5.5 4.7 10 10.1 11v65h5.1V30c5.6-1.2 10-6.3 10-12.4zM76.2 5c-6.4.3-11.6 5.5-11.9 11.9h11.9V5z" fill="#333"/><metadata xmlns:d="https://loading.io/stock/"><d:name>pie chart</d:name><d:tags>pie chart,bar chart,lollipop chart,visualization,visualize</d:tags><d:license>by</d:license><d:slug>cf1tjq</d:slug></metadata></svg>