<svg xmlns:xlink="http://www.w3.org/1999/xlink" xmlns="http://www.w3.org/2000/svg" viewBox="0 0 100 100" width="100"  height="100" ><path d="M59 12.8c-3.4 0-6.2 2.2-7.2 5.2h-32c-1-3-3.8-5.2-7.2-5.2-4.2 0-7.6 3.4-7.6 7.6 0 4.2 3.4 7.6 7.6 7.6 3.4 0 6.2-2.2 7.2-5.2h32c1 3 3.8 5.2 7.2 5.2 4.2 0 7.6-3.4 7.6-7.6 0-4.2-3.4-7.6-7.6-7.6zM12.6 24.9c-2.5 0-4.5-2-4.5-4.5s2-4.5 4.5-4.5 4.5 2 4.5 4.5-2 4.5-4.5 4.5z" fill="#333"/><path d="M87.4 72.1c-3.3 0-6.2 2.2-7.2 5.1H48.7c-1-3-3.8-5.1-7.2-5.1-4.2 0-7.6 3.4-7.6 7.6 0 4.2 3.4 7.6 7.6 7.6 3.4 0 6.3-2.2 7.2-5.3h31.4c1 3.1 3.8 5.3 7.2 5.3 4.2 0 7.6-3.4 7.6-7.6.1-4.3-3.3-7.6-7.5-7.6zm-45.9 12c-2.5 0-4.5-2-4.5-4.5s2-4.5 4.5-4.5 4.5 2 4.5 4.5-2 4.5-4.5 4.5z" fill="#333"/><path d="M81.2 52.1c-3.4 0-6.3 2.2-7.2 5.3H27.9c-1-3.1-3.8-5.3-7.2-5.3-4.2 0-7.6 3.4-7.6 7.6 0 4.2 3.4 7.6 7.6 7.6 3.3 0 6.1-2.1 7.2-5.1h46.2c1 3 3.8 5.1 7.2 5.1 4.2 0 7.6-3.4 7.6-7.6-.1-4.2-3.5-7.6-7.7-7.6zM20.7 64.2c-2.5 0-4.5-2-4.5-4.5s2-4.5 4.5-4.5 4.5 2 4.5 4.5-2 4.5-4.5 4.5z" fill="#333"/><path d="M78 32.5c-3.4 0-6.2 2.2-7.2 5.2H37.9c-1-3-3.8-5.2-7.2-5.2-4.2 0-7.6 3.4-7.6 7.6 0 4.2 3.4 7.6 7.6 7.6 3.4 0 6.2-2.2 7.2-5.2h32.9c1 3 3.8 5.2 7.2 5.2 4.2 0 7.6-3.4 7.6-7.6-.1-4.2-3.4-7.6-7.6-7.6zM30.7 44.6c-2.5 0-4.5-2-4.5-4.5s2-4.5 4.5-4.5 4.5 2 4.5 4.5-2 4.5-4.5 4.5z" fill="#333"/><metadata xmlns:d="https://loading.io/stock/"><d:name>dumbbell chart</d:name><d:tags>dumbbell chart,span chart,dot chart,diverging chart,difference chart,visualization,visualize</d:tags><d:license>by</d:license><d:slug>277zae</d:slug></metadata></svg>