<svg xmlns:xlink="http://www.w3.org/1999/xlink" xmlns="http://www.w3.org/2000/svg" viewBox="0 0 100 100" width="100"  height="100" ><path d="M19.9 60c0 3.3-2 6.1-5.3 7.1V95H9.9V67.1C7.2 66.1 5 63.3 5 60c0-4.1 3.5-7.5 7.6-7.5s7.3 3.4 7.3 7.5zM32 18.2c-4.1 0-7.6 3.4-7.6 7.5 0 3.3 2.3 6 4.9 7.1V95H34V32.8c3.4-1 5.3-3.8 5.3-7.1.1-4.2-3.2-7.5-7.3-7.5zm18.4 21.4c-4.1 0-7.5 3.4-7.5 7.5 0 3.3 1.8 6.2 5.2 7.1V95h4.7V54.2c2.7-1 5-3.8 5-7.1.1-4.1-3.2-7.5-7.4-7.5zM68.9 5c-4.1 0-7.4 3.4-7.4 7.5 0 3.1 2.1 5.8 4.8 7V95H71V19.8c3.4-.9 5.4-3.8 5.4-7.2C76.5 8.4 73 5 68.9 5zM95 76.5c0-4.1-3.4-7.5-7.6-7.5-4.1 0-7.3 3.4-7.3 7.5 0 3.2 1.7 5.9 5 7V95h4.7V83.6c2.7-.9 5.2-3.8 5.2-7.1z" fill="#333"/><metadata xmlns:d="https://loading.io/stock/"><d:name>lollipop chart</d:name><d:tags>lollipop chart,dot chart,bar chart,column chart,visualization,visualize</d:tags><d:license>by</d:license><d:slug>afrd1n</d:slug></metadata></svg>