<svg xmlns:xlink="http://www.w3.org/1999/xlink" xmlns="http://www.w3.org/2000/svg" viewBox="0 0 100 100" width="100"  height="100" ><path d="M50 5C25.1 5 5 25.1 5 50s20.1 45 45 45 45-20.1 45-45S74.9 5 50 5zm-5 84.4c-3.7 0-7.1-1.6-9.5-4.2.1.1.2.2.3.2.7.5 1.6.8 2.5.8 2.4 0 4.4-2.1 4.4-4.6 0-.8-.2-1.5-.5-2.1.2.3.5.6.7.9.4.4.8.8 1.3 1.1 1.4 1 3.2 1.6 5 1.6 4.8 0 8.7-3.9 8.9-8.8 0 .4.1.8.1 1.2 0 7.7-5.9 13.9-13.2 13.9zm4.2-24.8c-1.9 0-3.6.6-5 1.6-.5.3-.9.7-1.3 1.1-.6.6-1.1 1.3-1.5 2.1-.7 1.3-1.1 2.8-1.1 4.4s.4 3.1 1.1 4.4c.1.1.1.2.2.3-.8-1-2-1.6-3.3-1.6-.9 0-1.8.3-2.5.8-1.2.8-2 2.2-2 3.8 0 .8.2 1.5.5 2.2-1.7-2.3-2.7-5.2-2.7-8.3 0-7.6 6-13.9 13.3-13.9 4.6 0 8.6 2.4 11 6.2-1.6-1.8-4-3.1-6.7-3.1zm11.2-21.2c-.3.7-.6 1.4-.7 2.1-.1.5-.2 1-.2 1.6v.5c0-.1 0-.1-.1-.2l-.6-1.2c-.1-.2-.3-.4-.4-.5-1-1.2-2.4-2.1-4-2.4h.2c2.8 0 5.3-.8 7.6-2.1-.8.5-1.4 1.3-1.8 2.2zm-18.9-23c-1.1 2.2-1.8 4.7-1.8 7.4 0 1.6.2 3.1.7 4.6.4 1.3.9 2.4 1.6 3.5 1.2 2 2.9 3.7 4.8 5 1.8 1.2 3.9 1.9 6.1 2.2-3.6.2-6.5 3.2-6.5 7 0 2.3 1.1 4.3 2.7 5.6-7.7-3.6-13-11.7-13-21 0-7 3-13.3 7.8-17.6-1 1.1-1.7 2.2-2.4 3.3zm-9.4 38.1c-.4-2-2.1-3.6-4.2-3.6-1.2 0-2.2.5-3 1.3.3-.3.5-.7.7-1.1.6-1.1.9-2.4.9-3.7 0-.8-.1-1.6-.3-2.3-.1-.2-.2-.5-.3-.7-.1-.3-.3-.6-.5-.9-.3-.6-.7-1.1-1.2-1.6-.2-.2-.4-.4-.7-.6-.3-.2-.5-.4-.8-.6l-.6-.3c-1-.5-2.1-.8-3.3-.8-2.3 0-4.4 1.1-5.8 2.8-.2.2-.3.4-.4.6-.3.4-.5.9-.7 1.3-.1.2-.2.5-.3.7-.2.7-.3 1.5-.3 2.3 0 3 1.6 5.6 4 6.9 1.1.6 2.3.9 3.6.9 2.2 0 4.1-.9 5.5-2.4-.4.5-.6 1.1-.7 1.7-.1.3-.1.6-.1.9s0 .6.1.9c.2.8.5 1.5 1.1 2.1l.1.1c.8.8 1.9 1.3 3 1.3-1.7.9-3.6 1.4-5.7 1.4-6.6 0-12-5.4-12-12s5.4-12 12-12 12 5.4 12 12c0 2.5-.8 4.9-2.1 6.8 0-.2.1-.4.1-.7 0-.1-.1-.4-.1-.7zm4.8 1.2c.9-2 1.4-4.1 1.4-6.4 0-.4 0-.8-.1-1.2 1.8 2.2 3.8 4 6.1 5.5-2.7.2-5.2.9-7.4 2.1zm16.3-2.5c3.8 0 6.8-3.2 6.8-7v-.4c1.1 2.9 3.8 5 7 5 .5 0 1-.1 1.5-.2 1-.2 1.9-.6 2.6-1.1-3.6 2.7-8.1 4.3-12.9 4.3-1.8 0-3.5-.2-5.2-.6h.2zm18.4-4.1c-.1.1-.3.2-.4.3.2-.1.3-.2.4-.3zm2.8-6c0-1.5-.4-2.9-1.1-4.1-.1-.2-.2-.3-.3-.5-.2-.3-.5-.6-.7-.9l-.5-.5c-.3-.3-.6-.5-1-.7-.3-.2-.6-.3-.9-.5-.4-.2-.9-.3-1.4-.5-.5-.1-1-.2-1.5-.2-1 0-2 .2-2.9.6l-.6.3c.2-.2.5-.3.7-.5 3.3-2.8 5.4-7.1 5.4-11.9 0-3.2-.9-6.2-2.5-8.6l-.9-1.2c-.6-.8-1.3-1.5-2-2.1-.4-.3-.8-.6-1.1-.9-.8-.6-1.6-1-2.5-1.4-1.8-.8-3.7-1.2-5.8-1.2-1 0-2 .1-2.9.3 2-.7 4.2-1 6.5-1 12.2 0 22.2 10.3 22.2 23.1 0 7.4-3.4 14.1-8.7 18.3 1.5-1.4 2.5-3.5 2.5-5.9zM50 9s.1 0 0 0c-10.4 3.5-18 13.7-18 25.7 0 2.3.3 4.5.8 6.6-2.8-2.5-6.5-4-10.6-4-5.2 0-9.8 2.5-12.7 6.3C12.6 24 29.6 9 50 9zM12.1 65.7c2.8 2.2 6.3 3.6 10.1 3.6 2.6 0 5.1-.6 7.3-1.8-1.2 2.4-1.8 5.1-1.8 8 0 4.1 1.4 8 3.7 11-8.7-4.4-15.5-11.8-19.3-20.8zm41.8 25.1c5-3.1 8.4-8.8 8.4-15.3 0-5.6-2.5-10.5-6.3-13.8.8.1 1.5.1 2.3.1 14.5 0 26.2-12.1 26.2-27.1 0-3.3-.6-6.4-1.6-9.4 5 6.9 8.1 15.5 8.1 24.7 0 21.3-16.3 38.9-37.1 40.8z" fill="#333"/><metadata xmlns:d="https://loading.io/stock/">
<d:name>circular treemap</d:name>
<d:tags>circular treemap,group bubbles,area chart,visualization,visualize</d:tags>
<d:license>by</d:license>
<d:slug>uur8sa</d:slug>
</metadata></svg>