<svg xmlns:xlink="http://www.w3.org/1999/xlink" xmlns="http://www.w3.org/2000/svg" viewBox="0 0 100 100" width="187"  height="187" ><path d="M95 59.7c0-2.8-1.8-5.2-4.4-6V36.6c2.5-.8 4.4-3.2 4.4-6s-1.8-5.2-4.4-6V11.3h-3.9v13.4c-2.5.8-4.4 3.2-4.4 6 0 .3 0 .6.1.9L69.7 38 55.6 23.8c.4-.8.7-1.8.7-2.8 0-2.8-1.8-5.2-4.4-6v-3.7H48V15c-2.4.8-4.2 3-4.3 5.6l-27.1 6.8c-.8-1.2-2-2.2-3.4-2.7V11.3H9.4v13.4c-2.5.8-4.4 3.2-4.4 6s1.8 5.2 4.4 6V44c-2.6.8-4.4 3.2-4.4 6s1.8 5.2 4.4 6v17c-2.6.9-4.4 3.2-4.4 6s1.8 5.2 4.4 6v3.7h3.9V85c2.4-.8 4.2-2.9 4.3-5.5l27.1-6.8c.8 1.2 2 2.2 3.4 2.7v13.4H52V75.3c1.4-.5 2.6-1.4 3.4-2.7l27.1 6.8c.2 2.6 1.9 4.8 4.3 5.5v3.7h3.9V85c2.5-.8 4.4-3.2 4.4-6s-1.8-5.2-4.4-6v-7.4c2.5-.8 4.3-3.1 4.3-5.9zm-2.9 0c0 1.9-1.5 3.4-3.4 3.4s-3.4-1.5-3.4-3.4 1.5-3.4 3.4-3.4 3.4 1.5 3.4 3.4zm-3.4-32.4c1.9 0 3.4 1.5 3.4 3.4s-1.5 3.4-3.4 3.4-3.4-1.5-3.4-3.4 1.5-3.4 3.4-3.4zM84.2 35c.7.7 1.6 1.3 2.5 1.6v17.1c-.3.1-.6.2-.9.4L72.6 40.9 84.2 35zm-1.1 21.8c-.4.9-.7 1.8-.7 2.9 0 2.8 1.8 5.2 4.4 6V73c-1.4.5-2.6 1.4-3.4 2.7l-27.1-6.8c-.2-2.6-1.9-4.8-4.3-5.6V56c2.5-.8 4.4-3.2 4.4-6 0-.3 0-.6-.1-.9L69 42.7l14.1 14.1zM43.7 68.9l-27.1 6.8c-.8-1.2-2-2.2-3.4-2.7V56c1.9-.6 3.4-2.1 4-4H44c.6 1.9 2.1 3.4 4 4v7.4c-2.3.7-4.1 2.9-4.3 5.5zM17.6 31.1l27.1-6.8c.8 1.2 2 2.2 3.4 2.7v17c-1.9.6-3.4 2.1-4 4.1H17.3c-.6-1.9-2.1-3.4-4-4.1v-7.4c2.3-.8 4.1-2.9 4.3-5.5zM53.4 50c0 1.9-1.5 3.4-3.4 3.4s-3.4-1.5-3.4-3.4 1.5-3.4 3.4-3.4 3.4 1.5 3.4 3.4zm1.1-4.4c-.7-.7-1.6-1.3-2.6-1.6V26.9c.3-.1.6-.2.9-.4L66 39.7l-11.5 5.9zm-4.5-28c1.9 0 3.4 1.5 3.4 3.4s-1.5 3.4-3.4 3.4-3.4-1.5-3.4-3.4 1.5-3.4 3.4-3.4zm-42.1 13c0-1.9 1.5-3.4 3.4-3.4s3.4 1.5 3.4 3.4-1.5 3.4-3.4 3.4-3.4-1.5-3.4-3.4zm0 19.4c0-1.9 1.5-3.4 3.4-3.4s3.4 1.5 3.4 3.4-1.5 3.4-3.4 3.4-3.4-1.5-3.4-3.4zm3.4 32.4c-1.9 0-3.4-1.5-3.4-3.4s1.5-3.4 3.4-3.4 3.4 1.5 3.4 3.4-1.5 3.4-3.4 3.4zM50 72.7c-1.9 0-3.4-1.5-3.4-3.4S48.1 66 50 66s3.4 1.5 3.4 3.4-1.5 3.3-3.4 3.3zM92.1 79c0 1.9-1.5 3.4-3.4 3.4s-3.4-1.5-3.4-3.4 1.5-3.4 3.4-3.4 3.4 1.6 3.4 3.4z" fill="#333"/><metadata xmlns:d="https://loading.io/stock/"><d:name>parallel coordinates</d:name><d:tags>parallel coordinates,line chart,dot chart,visualization,visualize</d:tags><d:license>by</d:license><d:slug>8y8a6j</d:slug></metadata></svg>