<svg xmlns:xlink="http://www.w3.org/1999/xlink" xmlns="http://www.w3.org/2000/svg" viewBox="0 0 100 100" width="100"  height="100" ><path fill="#333" d="M52 84.3h17.8V95H52z"/><path fill="#333" d="M74 89.7h17.9V95H74z"/><path d="M24.4 48.3c0 3.9-3.3 7.1-7.4 7.1-4.1 0-7.4-3.2-7.4-7.1H8V95h17.4V48.3h-1z" fill="#333"/><path fill="#333" d="M30 67.8h17.6V95H30z"/><path d="M17.1 54c3.3 0 5.9-2.5 5.9-5.7 0-.9-.2-1.7-.6-2.5l14.2-14c.8.3 1.6.5 2.5.5 3.3 0 5.9-2.5 5.9-5.7 0-.3 0-.5-.1-.8l11.4-5.5c1.1.9 2.5 1.5 4 1.5 3.1 0 5.6-2.3 5.9-5.1l12.4-3c1.1 1.5 2.8 2.4 4.8 2.4 3.3 0 5.9-2.5 5.9-5.7S86.7 5 83.5 5c-3.1 0-5.6 2.3-5.9 5.2l-12.4 2.9c-1.1-1.5-2.9-2.5-4.9-2.5-3.3 0-5.9 2.5-5.9 5.7v.7L43 22.5c-1-.9-2.4-1.5-4-1.5-3.3 0-5.9 2.5-5.9 5.7 0 .9.2 1.7.6 2.4L19.5 43.2c-.7-.3-1.6-.5-2.4-.5-3.3 0-5.9 2.5-5.9 5.7s2.6 5.6 5.9 5.6zM83.5 7c2.2 0 3.9 1.7 3.9 3.7s-1.8 3.7-3.9 3.7-3.9-1.7-3.9-3.7C79.5 8.6 81.3 7 83.5 7zm-23.2 5.6c2.2 0 3.9 1.7 3.9 3.7S62.4 20 60.3 20c-2.2 0-3.9-1.7-3.9-3.7s1.7-3.7 3.9-3.7zM39.1 23c2.2 0 3.9 1.7 3.9 3.7s-1.8 3.7-3.9 3.7c-2.2 0-3.9-1.7-3.9-3.7-.1-2 1.7-3.7 3.9-3.7zm-22 21.6c2.2 0 3.9 1.7 3.9 3.7S19.2 52 17.1 52s-3.9-1.7-3.9-3.7c-.1-2 1.7-3.7 3.9-3.7z" fill="#333"/><metadata xmlns:d="https://loading.io/stock/">
<d:name>pareto chart</d:name>
<d:tags>pareto chart,work flow,factory,manufacture,quality assurance,qa,visualization,visualize</d:tags>
<d:license>by</d:license>
<d:slug>9koxi3</d:slug>
</metadata></svg>