<svg xmlns:xlink="http://www.w3.org/1999/xlink" xmlns="http://www.w3.org/2000/svg" viewBox="0 0 100 100" width="100"  height="100" ><path d="M50 95L18.5 82.6 5 50.9l12.8-32.6L50 5l32.1 14L95 51 81.6 82.1 50 95zM21.1 79.9L50 91.2l29-11.9 12.3-28.5-11.9-29.2L50 8.8 20.5 21 8.8 50.9l12.3 29zm19-40.4l4 10.5 5.9 9.7 18.6 7.8L69.8 50 60 39.5H40.1zm9.9 0h-9.9l4 10.5 5.9 9.7 18.6 7.8L69.8 50 60 39.5H50zM69.8 30L50 15 30.3 29.5 25.1 50l5 19.7L50 85.2l23.1-11L84.6 50 69.8 30zm3 20.2l-1.2 17.5-.3 4.2-3.8-1.6-18.6-7.8-.9-.4-.5-.8-5.9-9.7-.1-.2-.1-.3-4-10.5-1.5-4.1h25.5l.9 1L72 48l.9 1-.1 1.2z" fill="#333"/><metadata xmlns:d="https://loading.io/stock/"><d:name>radar chart</d:name><d:tags>radar chart,polar chart,star chart,web chart,visualization,visualize</d:tags><d:license>by</d:license><d:slug>qgk91l</d:slug></metadata></svg>