<svg xmlns:xlink="http://www.w3.org/1999/xlink" xmlns="http://www.w3.org/2000/svg" viewBox="0 0 100 100" width="100"  height="100" ><path d="M60.1 22.9c7.4.4 14 3.3 19.4 8.1L60.1 50.6V22.9zm3.2 30.4h19.1c-.4-4.7-2.4-9.8-5.6-13.6L63.3 53.3zM81 75.2c4.3-5 6.9-11.1 7.3-17.8h-25L81 75.2zM60.1 90.6c8.1-.5 15.3-3.5 21.2-8.9L60.1 60.4v30.2zm-4 4.4V60.4L31.8 84.9C38.5 91 47.3 94.5 56.1 95zM15.3 57.3c.5 10.1 4.4 19.7 11.2 27.3l27.1-27.3H15.3zM24 23.4c-7.5 8.2-11.8 19.1-12.3 29.9h41.9L24 23.4zM56.1 5c-11.4.5-23.2 5.2-32 13.4l32 32.2V5z" fill="#333"/><metadata xmlns:d="https://loading.io/stock/"><d:name>nightingale rose</d:name><d:tags>nightingale rose,polar chart,area chart,pie,pizza,coxcomb,visualization,visualize</d:tags><d:license>by</d:license><d:slug>akbrh9</d:slug></metadata></svg>