<svg xmlns:xlink="http://www.w3.org/1999/xlink" xmlns="http://www.w3.org/2000/svg" viewBox="0 0 100 100" width="100"  height="100" ><path fill="#333" d="M5 89.3h90v4H5z"/><g><path d="M64.8 53.9l-30-5.3L5 61.4v7.4l27.4-6.7c2-.5 4.2-.3 6.1.6l23.1 9.5c2.6 1.2 5.7 1.1 8.2-.2L95 57.1V39.8L64.8 53.9z" fill="#333"/><path d="M34.3 44.5l30 5.3L95 35.4V6.7L68.2 33.8c-1.4 1.4-3.5 1.8-5.3.9L38.1 22.9a4.6 4.6 0 0 0-5.2.9L5 51v6.1l29.3-12.6z" fill="#333"/></g><metadata xmlns:d="https://loading.io/stock/"><d:name>theme river</d:name><d:tags>theme river,streamgraph,area chart,trend,topic,visualization,visualize</d:tags><d:license>by</d:license><d:slug>wa9bug</d:slug></metadata></svg>