<svg xmlns:xlink="http://www.w3.org/1999/xlink" xmlns="http://www.w3.org/2000/svg" viewBox="0 0 100 100" width="100"  height="100" ><path d="M46.4 73.1L37 95H7l8-9.4 17.3-21.2 10.2-.4 3.9 9.1zM25 61.7L5 48.8v37.3l5-6.1 15-18.3zm41.3 25.2l-14-8.4L45.1 95h34.5L76 92.7l-9.7-5.8zm-3.2-55.4l.5-.1 6.7-9.4 8.9-12.6 3-4.3h-35l7.4 12.4 8.5 14zM31.5 57l2.3-.1 9.1-.4 14-20.8L38.5 5H5v34.9l12.8 8.3L31.5 57zm32.2-17.9L49.2 60.6l1.8 4.1 2.5 5.9 29 17.4 11.7 7h.8V48.5l-29.2-10-2.1.6zM91.6 5l-6.8 9.2-3.2 4.5-9.9 14L95 40.6V5h-3.4z" fill="#333"/><metadata xmlns:d="https://loading.io/stock/"><d:name>voronoi treemap</d:name><d:tags>voronoi treemap,area chart,visualization,visualize</d:tags><d:license>by</d:license><d:slug>rtrdix</d:slug></metadata></svg>