<svg xmlns:xlink="http://www.w3.org/1999/xlink" xmlns="http://www.w3.org/2000/svg" viewBox="0 0 100 100" width="100"  height="100" ><path d="M54.1 20.6L45 5.3l.3-.1L50 5l4.7.2 4.7.8L64 7.2l4.4 1.7 4.2 2.1 3.7 2.4-8 11.3-6 8.5-.5.1-7.7-12.7zM33.4 56.3l2.1-.1 8.2-.4 12.6-18.7L38 6.7l-1.9.5-4.4 1.7-4.2 2.1-4 2.6-3.7 3-3.3 3.3-3 3.7-2.6 4-2.1 4.2-1.7 4.4-.7 2.8L21 48.4l12.4 7.9zM5.2 46.2L5 50l.2 4.7.8 4.7 1.2 4.5 1.7 4.4 2.1 4.2 2.6 4 .4.5 13.5-16.4L5.2 46.2zm89.2-3.3l-.4-2.3-1.2-4.5-1.7-4.4-2.1-4.2-2.6-4-3-3.7-2.1-2.1-2.9 4.1-8.9 12.6 24.9 8.5zM52 75.7l-8.1 18.8 1.4.2 4.7.3 4.7-.2 4.7-.7 4.6-1.2 4.4-1.7 4.2-2.1.8-.5-8.7-5.2L52 75.7zm-8.7-13.1l-9.2.4-15.6 19 1.4 1.4 3.7 3 4 2.6 4.2 2.1 4.4 1.7 1.1.3 9.6-22.3-3.6-8.2zm20.9-22.9l-1.9.5-13 19.3 1.6 3.7 2.3 5.3 26.1 15.6.9-.7 3.3-3.3 3-3.7 2.6-4 2.1-4.2 1.7-4.4 1.2-4.5.7-4.7.2-4.5-30.8-10.4z" fill="#333"/><metadata xmlns:d="https://loading.io/stock/"><d:name>voronoi treemap</d:name><d:tags>voronoi treemap,area chart,visualization,visualize</d:tags><d:license>by</d:license><d:slug>sgecmn</d:slug></metadata></svg>