<svg xmlns:xlink="http://www.w3.org/1999/xlink" xmlns="http://www.w3.org/2000/svg" viewBox="0 0 100 100" width="100"  height="100" ><path d="M17.1 10v7.1H10V10h7.1m2.5-2.5H7.5v12.1h12.1V7.5z" fill="#333"/><path d="M17.1 28.3v7.1H10v-7.1h7.1m2.5-2.6H7.5v12.1h12.1V25.7z" fill="#333"/><path d="M17.1 46.5v7.1H10v-7.1h7.1m2.5-2.6H7.5V56h12.1V43.9z" fill="#333"/><path d="M35.3 10v7.1h-7.1V10h7.1m2.6-2.5H25.7v12.1h12.1V7.5h.1z" fill="#333"/><path d="M53.5 10v7.1h-7.1V10h7.1m2.6-2.5H43.9v12.1H56V7.5h.1z" fill="#333"/><path d="M35.3 28.3v7.1h-7.1v-7.1h7.1m2.6-2.6H25.7v12.1h12.1V25.7h.1z" fill="#333"/><path d="M35.3 46.5v7.1h-7.1v-7.1h7.1m2.6-2.6H25.7V56h12.1V43.9h.1z" fill="#333"/><path d="M53.5 28.3v7.1h-7.1v-7.1h7.1m2.6-2.6H43.9v12.1H56V25.7h.1z" fill="#333"/><path fill="#333" d="M43.9 43.9H56V56H43.9z"/><path fill="#333" d="M7.5 62.1h12.1v12.1H7.5z"/><path fill="#333" d="M7.5 80.4h12.1v12.1H7.5z"/><path fill="#333" d="M25.7 62.1h12.1v12.1H25.7z"/><path fill="#333" d="M25.7 80.4h12.1v12.1H25.7z"/><path fill="#333" d="M43.9 62.1H56v12.1H43.9z"/><path fill="#333" d="M43.9 80.4H56v12.1H43.9z"/><path d="M71.7 10v7.1h-7.1V10h7.1m2.6-2.5H62.1v12.1h12.1V7.5h.1z" fill="#333"/><path d="M90 10v7.1h-7.1V10H90m2.5-2.5H80.4v12.1h12.1V7.5z" fill="#333"/><path d="M71.7 28.3v7.1h-7.1v-7.1h7.1m2.6-2.6H62.1v12.1h12.1V25.7h.1z" fill="#333"/><path fill="#333" d="M62.1 43.9h12.1V56H62.1z"/><path d="M90 28.3v7.1h-7.1v-7.1H90m2.5-2.6H80.4v12.1h12.1V25.7z" fill="#333"/><path fill="#333" d="M80.4 43.9h12.1V56H80.4z"/><path fill="#333" d="M62.1 62.1h12.1v12.1H62.1z"/><path fill="#333" d="M62.1 80.4h12.1v12.1H62.1z"/><path fill="#333" d="M80.4 62.1h12.1v12.1H80.4z"/><path fill="#333" d="M80.4 80.4h12.1v12.1H80.4z"/><metadata xmlns:d="https://loading.io/stock/"><d:name>waffle chart</d:name><d:tags>waffle chart,dot matrix,proportional,rectangle,square pie,area,visualization,visualize</d:tags><d:license>by</d:license><d:slug>r7aq7z</d:slug></metadata></svg>