<svg xmlns:xlink="http://www.w3.org/1999/xlink" xmlns="http://www.w3.org/2000/svg" viewBox="0 0 100 100" width="100"  height="100" ><path d="M5 43.1h2.6l.9 4.9 1.4-4.9h2.6l1.4 4.9.9-4.9h2.6l-1.9 8.8h-2.7l-1.5-5.5-1.5 5.5H7l-2-8.8z" fill="#333"/><path d="M17.6 47.5c0-1.4.4-2.6 1.2-3.4.8-.8 1.9-1.2 3.3-1.2 1.5 0 2.6.4 3.4 1.2.8.8 1.2 1.9 1.2 3.3 0 1-.2 1.9-.5 2.5-.3.7-.8 1.2-1.5 1.5-.7.4-1.5.5-2.4.5-1 0-1.8-.2-2.5-.5s-1.2-.8-1.6-1.5c-.3-.5-.6-1.3-.6-2.4zm2.8 0c0 .9.2 1.5.5 1.9.3.4.8.6 1.3.6.6 0 1-.2 1.4-.6.3-.4.5-1.1.5-2 0-.8-.2-1.4-.5-1.8-.3-.4-.8-.6-1.4-.6-.5 0-1 .2-1.3.6-.4.4-.5 1-.5 1.9z" fill="#333"/><path d="M28.3 51.9v-8.8h4.5c.8 0 1.5.1 1.9.2.4.1.8.4 1.1.8.3.4.4.9.4 1.4 0 .5-.1.9-.3 1.3-.2.4-.5.6-.9.9-.2.1-.6.3-1 .3.3.1.6.2.7.3.1.1.2.2.4.5.2.2.3.4.4.5l1.3 2.6h-3.1l-1.5-2.7c-.2-.3-.3-.6-.5-.7-.2-.1-.4-.2-.7-.2v3.6h-2.7zm2.7-5.2h1.1c.1 0 .4 0 .7-.1.2 0 .3-.1.4-.3.1-.1.2-.3.2-.5 0-.3-.1-.5-.3-.7-.2-.2-.5-.2-1-.2H31v1.8z" fill="#333"/><path d="M37.8 43.1h4c.8 0 1.4.1 1.9.3.5.2.9.5 1.2.9.3.4.6.9.7 1.4.1.5.2 1.1.2 1.7 0 .9-.1 1.7-.3 2.2-.2.5-.5 1-.9 1.3-.4.4-.8.6-1.2.7-.6.2-1.1.2-1.6.2h-4v-8.7zm2.8 2v4.8h.7c.6 0 1-.1 1.2-.2.2-.1.4-.3.6-.7.1-.3.2-.8.2-1.5 0-.9-.2-1.6-.5-1.9-.3-.3-.8-.5-1.5-.5h-.7z" fill="#333"/><path d="M57.1 76.3l1.1-3.7c1 .2 1.9.6 2.6 1.2.7.5 1.2 1.2 1.6 2 .4.8.5 1.8.5 3 0 1.5-.2 2.7-.6 3.6-.4.9-1.2 1.7-2.3 2.4-1.1.7-2.5 1-4.1 1-2.2 0-4-.6-5.2-1.8-1.2-1.2-1.8-2.9-1.8-5.1 0-1.7.3-3 1-4s1.7-1.7 3.2-2.2l.8 3.7c-.4.1-.7.3-.9.4-.3.2-.6.5-.7.9-.2.3-.3.7-.3 1.1 0 .9.4 1.7 1.1 2.2.6.4 1.5.6 2.7.6 1.5 0 2.5-.2 3.1-.7.6-.5.8-1.1.8-1.9 0-.8-.2-1.4-.7-1.8-.4-.5-1.1-.8-1.9-.9z" fill="#333"/><path d="M49.1 70.6v-4.2h10.2v-6.5h3.3v10.7H49.1z" fill="#333"/><path d="M55.9 58.8c-2.2 0-3.9-.6-5.2-1.8-1.2-1.2-1.8-2.9-1.8-5.1 0-2.3.6-4 1.8-5.2 1.2-1.2 2.9-1.8 5.1-1.8 1.6 0 2.9.3 3.9.8s1.8 1.3 2.4 2.3c.6 1 .8 2.3.8 3.8s-.2 2.8-.7 3.8-1.3 1.8-2.3 2.4c-1.1.5-2.5.8-4 .8zm0-4.2c1.4 0 2.3-.3 2.9-.8.6-.5.9-1.2.9-2.1 0-.9-.3-1.6-.9-2.1s-1.6-.7-3.1-.7c-1.3 0-2.2.3-2.8.8-.6.5-.9 1.2-.9 2.1 0 .8.3 1.5.9 2 .6.6 1.6.8 3 .8z" fill="#333"/><path d="M49.1 33.7v-4.2h8.1c.8 0 1.6.1 2.3.4.7.2 1.3.6 1.9 1.2.5.5.9 1.1 1.1 1.7.3.8.5 1.8.5 2.9 0 .7 0 1.4-.1 2.2-.1.8-.3 1.4-.5 2-.3.5-.7 1-1.2 1.4-.5.4-1 .7-1.6.9-.9.3-1.6.4-2.3.4h-8.1v-4.2h8.3c.7 0 1.3-.2 1.7-.6.4-.4.6-1 .6-1.7s-.2-1.3-.6-1.7c-.4-.4-1-.6-1.7-.6h-8.4z" fill="#333"/><path d="M49.1 26.7v-6.2c0-1.2.2-2.2.5-3 .3-.8.8-1.4 1.4-1.9.6-.5 1.3-.8 2.2-1.1.8-.2 1.7-.3 2.6-.3 1.4 0 2.6.2 3.4.5.8.3 1.5.8 2 1.4.5.6.9 1.2 1.1 1.9.2.9.4 1.7.4 2.5v6.2H49.1zm3.1-4.2h7.4v-1c0-.9-.1-1.5-.3-1.9-.2-.4-.5-.7-1-.9-.5-.2-1.3-.3-2.4-.3-1.4 0-2.4.2-2.9.7s-.8 1.2-.8 2.3v1.1z" fill="#333"/><path d="M13.7 28.6h3.7c.7 0 1.3.1 1.8.3.5.2.8.5 1.1.9.3.4.5.8.6 1.3.1.5.2 1 .2 1.6 0 .9-.1 1.5-.3 2-.2.5-.5.9-.8 1.2-.4.3-.7.5-1.1.6-.6.1-1 .2-1.5.2h-3.7v-8.1zm2.5 1.9v4.4h.6c.5 0 .9-.1 1.1-.2.2-.1.4-.3.5-.6s.2-.8.2-1.4c0-.9-.1-1.5-.4-1.8-.3-.3-.7-.5-1.4-.5h-.6z" fill="#333"/><path d="M27 35.4h-2.9l-.4 1.3h-2.6l3.1-8.1H27l3.1 8.1h-2.6l-.5-1.3zm-.5-1.7l-.9-2.9-.9 2.9h1.8z" fill="#333"/><path d="M29.5 28.6h7.6v2h-2.6v6.1H32v-6.1h-2.6v-2z" fill="#333"/><path d="M42.4 35.4h-2.9l-.4 1.3h-2.6l3.1-8.1h2.7l3.1 8.1h-2.6l-.4-1.3zm-.5-1.7l-.9-3-.9 2.9h1.8z" fill="#333"/><path d="M70 66.6l1.5.4c-.1.4-.3.8-.5 1-.2.3-.5.5-.8.6s-.7.2-1.2.2c-.6 0-1.1-.1-1.4-.3s-.7-.5-1-.9c-.3-.4-.4-1-.4-1.7 0-.9.2-1.6.7-2.1.5-.5 1.2-.7 2-.7.7 0 1.2.1 1.6.4s.7.7.9 1.3l-1.5.3c-.1-.2-.1-.3-.2-.4l-.3-.3c-.1-.1-.3-.1-.5-.1-.4 0-.7.2-.9.5-.2.2-.2.6-.2 1.1 0 .6.1 1 .3 1.2.2.2.4.3.8.3.3 0 .6-.1.7-.3.2.1.3-.2.4-.5z" fill="#333"/><path d="M72.3 63.4H74v1.9h1.8v-1.9h1.7v5.4h-1.7v-2.2H74v2.2h-1.7v-5.4z" fill="#333"/><path d="M81.9 67.9H80l-.3.9H78l2-5.4h1.8l2 5.4H82l-.1-.9zm-.3-1.2l-.6-1.9-.6 1.9h1.2z" fill="#333"/><path d="M84.5 68.8v-5.4h2.8c.5 0 .9 0 1.2.1.3.1.5.3.7.5.2.2.3.5.3.9 0 .3-.1.6-.2.8-.1.2-.3.4-.5.5-.1.1-.3.2-.6.2.2.1.3.1.4.2.1 0 .2.1.3.3.1.1.2.3.2.3l.8 1.6H88l-1-1.7c-.1-.2-.2-.4-.3-.4-.1-.1-.3-.1-.4-.1h-.1v2.2h-1.7zm1.7-3.2h.7c.1 0 .2 0 .4-.1.1 0 .2-.1.3-.2.1-.1.1-.2.1-.3 0-.2-.1-.3-.2-.4s-.3-.1-.6-.1h-.7v1.1z" fill="#333"/><path d="M89.9 63.4H95v1.3h-1.7v4.1h-1.7v-4.1h-1.7v-1.3z" fill="#333"/><path d="M66.8 58.7v-4.5c0-1 .2-1.7.7-2.2.5-.5 1.1-.7 2-.7.9 0 1.6.3 2.1.8s.8 1.3.8 2.4V56h3.3v2.7h-8.9zm3.8-2.8v-.7c0-.5-.1-.9-.3-1.1-.2-.2-.4-.3-.7-.3-.3 0-.5.1-.7.3-.2.2-.3.5-.3 1v.8h2z" fill="#333"/><path d="M66.8 49.8V47h6.6v-4.2h2.2v7h-8.8z" fill="#333"/><path d="M71.2 42.1c-1.4 0-2.6-.4-3.4-1.2-.8-.8-1.2-1.9-1.2-3.3 0-1.5.4-2.6 1.2-3.4.8-.8 1.9-1.2 3.3-1.2 1 0 1.9.2 2.5.5.7.3 1.2.8 1.5 1.5.4.7.5 1.5.5 2.4 0 1-.2 1.8-.5 2.5s-.8 1.2-1.5 1.6c-.5.4-1.3.6-2.4.6zm0-2.7c.9 0 1.5-.2 1.9-.5.4-.3.6-.8.6-1.3 0-.6-.2-1-.6-1.4-.4-.3-1.1-.5-2-.5-.8 0-1.4.2-1.8.5-.4.3-.6.8-.6 1.4 0 .5.2 1 .6 1.3.4.3 1 .5 1.9.5z" fill="#333"/><path d="M66.8 32.5v-8.3H69V27h6.6v2.7H69v2.8h-2.2z" fill="#333"/><path d="M66.7 73.5h1.6c.3 0 .6 0 .7.1s.3.2.5.4c.1.2.2.3.3.5.1.2.1.4.1.7 0 .4 0 .6-.1.8-.1.2-.2.4-.3.5-.1.1-.3.2-.5.3-.2.1-.4.1-.6.1h-1.6v-3.4zm1 .8v1.8h.3c.2 0 .4 0 .5-.1.1 0 .2-.1.2-.3.1-.1.1-.3.1-.6 0-.4-.1-.6-.2-.7-.1-.1-.3-.2-.6-.2h-.3z" fill="#333"/><path d="M70.4 73.5h1v3.4h-1v-3.4z" fill="#333"/><path d="M74.3 76.3h-1.2l-.1.6h-1.1l1.3-3.4h1.1l1.3 3.4h-1.1l-.2-.6zm-.2-.7l-.4-1.2-.4 1.2h.8z" fill="#333"/><path d="M77.6 75.6v-.7h1.6v1.4c-.3.2-.6.4-.8.4-.2.1-.5.1-.8.1-.4 0-.7-.1-1-.2s-.4-.3-.6-.6c-.1-.3-.2-.6-.2-.9 0-.4.1-.7.2-1 .2-.3.4-.5.7-.6.2-.1.5-.2.9-.2s.7 0 .8.1c.2.1.3.2.5.3.1.1.2.3.3.5l-1 .2c0-.1-.1-.2-.2-.3-.1-.1-.2-.1-.4-.1s-.4.1-.5.2c-.1.2-.2.4-.2.8s.1.6.2.8.3.2.6.2c.1 0 .2 0 .3-.1.1 0 .2-.1.4-.2v-.3h-.8z" fill="#333"/><path d="M79.8 76.9v-3.4h1.7c.3 0 .6 0 .7.1.2.1.3.2.4.3.1.1.2.3.2.5s0 .4-.1.5l-.3.3c-.1.1-.2.1-.4.1.1 0 .2.1.3.1l.2.2c.1.1.1.2.1.2l.5 1H82l-.6-1c-.1-.1-.1-.2-.2-.3-.1-.1-.2-.1-.3-.1h-.1v1.4h-1zm1.1-2h.7c.1 0 .1 0 .2-.1 0-.1.1-.1.1-.2s0-.2-.1-.3c-.1-.1-.2-.1-.4-.1h-.5v.7z" fill="#333"/><path d="M85.6 76.3h-1.2l-.2.6h-1.1l1.3-3.4h1.1l1.3 3.4h-1.1l-.1-.6zm-.2-.7l-.4-1.2-.4 1.2h.8z" fill="#333"/><path d="M87.2 73.5h1.4l.5 2.1.5-2.1H91v3.4h-.9v-2.6l-.7 2.6h-.8l-.7-2.6v2.6H87v-3.4z" fill="#333"/><path d="M39.1 76.6l-.1-5.7h1.5v1.9h4.6v1.9h-4.6v1.9h-1.4z" fill="#333"/><path d="M44.1 66.8v2.1l1 .3v1.9L39 69v-2.1l6.1-2.3v2l-1 .2zm-1.3.4l-2.2.7 2.2.6v-1.3z" fill="#333"/><path d="M42.8 61.1h-1.3v-2.9h2.6c.4.6.6 1 .8 1.5.1.4.2.9.2 1.5 0 .7-.1 1.3-.4 1.8-.2.5-.6.8-1.1 1.1-.5.3-1 .4-1.7.4s-1.2-.1-1.7-.4c-.5-.3-.9-.7-1.1-1.2-.2-.4-.3-1-.3-1.7s0-1.2.2-1.5c.1-.3.3-.6.6-.8.3-.2.6-.4 1-.5l.3 1.8c-.2.1-.4.2-.5.4-.1.2-.2.4-.2.7 0 .4.2.7.4 1 .3.2.7.4 1.4.4s1.1-.1 1.4-.4c.3-.3.4-.6.4-1 0-.2 0-.4-.1-.6-.1-.2-.2-.4-.3-.7h-.6v1.1z" fill="#333"/><path d="M79 58.1V57l2.4-.8-2.4-.7v-1.1l3.4 1.3v1.1L79 58.1z" fill="#333"/><path d="M79 54v-1h3.4v1H79z" fill="#333"/><path d="M81.2 52.4l-.1-1c.2 0 .3-.1.4-.1.1-.1.2-.3.2-.5 0-.1 0-.3-.1-.3-.1-.1-.2-.1-.2-.1-.1 0-.2 0-.2.1-.1 0-.2.2-.2.5-.1.5-.2.8-.4 1-.2.2-.4.3-.7.3-.2 0-.3-.1-.5-.2s-.3-.3-.4-.5c-.1-.2-.1-.5-.1-.8 0-.4.1-.8.2-1s.4-.4.8-.4l.1 1c-.2 0-.3.1-.3.2-.1.1-.1.2-.1.3 0 .1 0 .2.1.3.1.1.1.1.2.1s.1 0 .1-.1c0 0 .1-.2.1-.4.1-.5.2-.8.3-1 .1-.2.2-.3.4-.4.1-.1.3-.1.5-.1s.4.1.6.2c.2.1.3.3.4.5.1.2.1.5.1.8 0 .6-.1 1-.3 1.2-.2.2-.5.3-.9.4z" fill="#333"/><path d="M79 46.5v-1h2c.2 0 .4 0 .6.1.2.1.3.2.5.3.1.1.2.3.3.4.1.2.1.4.1.7v.5c0 .2-.1.4-.1.5-.1.1-.2.3-.3.4-.1.1-.3.2-.4.2-.2.1-.4.1-.6.1h-2v-1H81c.2 0 .3-.1.4-.2.1-.1.2-.2.2-.4s-.1-.3-.2-.4c-.1-.1-.2-.2-.4-.2h-2z" fill="#333"/><path d="M81.8 42.9V44l.6.2v1.1L79 44v-1.1l3.4-1.3v1.1l-.6.2zm-.7.2l-1.2.4 1.2.4v-.8z" fill="#333"/><path d="M79 41.2v-1h2.6v-1.6h.8v2.7H79z" fill="#333"/><path d="M79 38v-1h3.4v1H79z" fill="#333"/><path d="M79 36.2v-3h.7l2 1.9v-2h.7v3.2h-.7l-2-1.9v1.7H79z" fill="#333"/><path d="M81.8 30.6v1.2l.6.2v1L79 31.8v-1.1l3.4-1.3v1.1l-.6.1zm-.7.2l-1.2.4 1.2.4v-.8z" fill="#333"/><path d="M79 29.6v-3.2h.8v1.1h2.5v1h-2.5v1.1H79z" fill="#333"/><path d="M79 25.8v-1h3.4v1H79z" fill="#333"/><path d="M80.7 24.1c-.6 0-1-.2-1.3-.5-.3-.3-.5-.7-.5-1.3 0-.6.2-1 .5-1.3.3-.3.7-.5 1.3-.5.4 0 .7.1 1 .2s.4.3.6.6c.1.3.2.6.2.9 0 .4-.1.7-.2.9-.1.3-.3.5-.6.6s-.6.4-1 .4zm0-1c.3 0 .6-.1.7-.2.1-.1.2-.3.2-.5s-.1-.4-.2-.5c-.1-.1-.4-.2-.8-.2-.3 0-.6.1-.7.2-.1.1-.2.3-.2.5s.1.4.2.5c.2.1.4.2.8.2z" fill="#333"/><path d="M79 20v-1l1.9-1.3H79v-1h3.4v1L80.5 19h1.9v1H79z" fill="#333"/><path d="M10.2 61.8v-1.1h2.6V63c-.5.3-.9.6-1.3.7-.4.1-.8.2-1.4.2-.6 0-1.2-.1-1.6-.3-.4-.2-.7-.5-.9-1-.2-.4-.3-.9-.3-1.5s.1-1.1.4-1.5c.2-.4.6-.8 1.1-1 .4-.2.9-.3 1.5-.3s1 .1 1.3.2c.3.1.5.3.7.5s.3.5.4.9l-1.6.3c-.1-.2-.2-.4-.3-.5-.2-.1-.4-.2-.6-.2-.4 0-.7.1-.9.4-.2.3-.3.7-.3 1.2 0 .6.1 1 .3 1.3s.5.4.9.4c.2 0 .4 0 .5-.1s.4-.1.6-.3v-.5h-1.1z" fill="#333"/><path d="M13.8 63.8v-5.4h2.8c.5 0 .9 0 1.2.1.3.1.5.3.7.5.2.2.3.5.3.9 0 .3-.1.6-.2.8-.1.2-.3.4-.5.5-.1.1-.3.2-.6.2.2.1.3.1.4.2.1 0 .2.1.3.3.1.1.2.3.2.3l.8 1.6h-1.9l-.9-1.7c-.1-.2-.2-.4-.3-.4-.1-.1-.3-.1-.4-.1h-.1v2.2h-1.8zm1.7-3.2h.7c.1 0 .2 0 .4-.1.1 0 .2-.1.3-.2s.1-.2.1-.3c0-.2-.1-.3-.2-.4s-.3-.1-.6-.1h-.7v1.1z" fill="#333"/><path d="M23 62.9h-1.9l-.3.9h-1.7l2-5.4H23l2 5.4h-1.8l-.2-.9zm-.4-1.2l-.6-1.9-.6 1.9h1.2z" fill="#333"/><path d="M25.5 58.4h2.8c.6 0 1.1.1 1.4.4.3.3.5.7.5 1.2s-.2 1-.5 1.3-.8.5-1.5.5h-.9v2h-1.7v-5.4zm1.7 2.3h.4c.3 0 .5-.1.7-.2.1-.1.2-.3.2-.4 0-.2-.1-.3-.2-.4s-.3-.2-.6-.2h-.5v1.2z" fill="#333"/><path d="M31 58.4h1.7v1.9h1.8v-1.9h1.7v5.4h-1.7v-2.2h-1.8v2.2H31v-5.4z" fill="#333"/><path d="M31.3 78.1v-1.3l2.9-.9-2.9-.9v-1.3l4.1 1.5v1.4l-4.1 1.5z" fill="#333"/><path d="M31.3 73.2v-1.3h4.1v1.3h-4.1z" fill="#333"/><path d="M31.3 71.1v-3.6h.8l2.4 2.3v-2.4h.9v3.9h-.8L32.2 69v2h-.9z" fill="#333"/><metadata xmlns:d="https://loading.io/stock/"><d:name>word cloud</d:name><d:tags>word cloud,wordle,tag cloud,text visualization,visualize</d:tags><d:license>by</d:license><d:slug>r2aywr</d:slug></metadata></svg>