<svg xmlns="http://www.w3.org/2000/svg" viewBox="0 0 174 174"><defs><style>.cls-1{fill:#f4f6f8;}.cls-2{fill:#617482;}</style></defs><g id="Layer_2" data-name="Layer 2"><rect class="cls-1" width="174" height="174"/></g><g id="Layer_1" data-name="Layer 1"><g id="Layer_1-2" data-name="Layer 1"><rect class="cls-2" x="72.18" y="62.26" width="4.95" height="4.95"/><rect class="cls-2" x="82.08" y="62.26" width="4.95" height="4.95"/><rect class="cls-2" x="91.98" y="62.26" width="4.95" height="4.95"/><rect class="cls-2" x="101.88" y="62.26" width="4.95" height="4.95"/><rect class="cls-2" x="72.18" y="72.15" width="4.95" height="4.95"/><rect class="cls-2" x="82.08" y="72.15" width="4.95" height="4.95"/><rect class="cls-2" x="91.98" y="72.15" width="4.95" height="4.95"/><rect class="cls-2" x="101.88" y="72.15" width="4.95" height="4.95"/><rect class="cls-2" x="72.18" y="82.05" width="4.95" height="4.95"/><rect class="cls-2" x="82.08" y="82.05" width="4.95" height="4.95"/><rect class="cls-2" x="91.98" y="82.05" width="4.95" height="4.95"/><rect class="cls-2" x="101.88" y="82.05" width="4.95" height="4.95"/><rect class="cls-2" x="72.18" y="91.95" width="4.95" height="4.95"/><rect class="cls-2" x="82.08" y="91.95" width="4.95" height="4.95"/><rect class="cls-2" x="91.98" y="91.95" width="4.95" height="4.95"/><rect class="cls-2" x="101.88" y="91.95" width="4.95" height="4.95"/><rect class="cls-2" x="42.49" y="77.1" width="4.95" height="4.95"/><rect class="cls-2" x="52.39" y="77.1" width="4.95" height="4.95"/><rect class="cls-2" x="42.49" y="87" width="4.95" height="4.95"/><rect class="cls-2" x="52.39" y="87" width="4.95" height="4.95"/><rect class="cls-2" x="42.49" y="96.9" width="4.95" height="4.95"/><rect class="cls-2" x="52.39" y="96.9" width="4.95" height="4.95"/><rect class="cls-2" x="42.49" y="106.8" width="4.95" height="4.95"/><rect class="cls-2" x="52.39" y="106.8" width="4.95" height="4.95"/><rect class="cls-2" x="121.67" y="72.15" width="9.9" height="4.95"/><rect class="cls-2" x="121.67" y="62.26" width="9.9" height="4.95"/><rect class="cls-2" x="121.67" y="82.05" width="9.9" height="4.95"/><rect class="cls-2" x="121.67" y="91.95" width="9.9" height="4.95"/><rect class="cls-2" x="121.67" y="101.85" width="9.9" height="4.95"/><rect class="cls-2" x="121.67" y="111.74" width="9.9" height="4.95"/><rect class="cls-2" x="121.67" y="121.64" width="9.9" height="4.95"/><path class="cls-2" d="M32.59,67.2m79.19-29.49V52.36h-7.43V35H74.66V52.36H62.29V67.2l-29.76-.06V138.9l29.76.06h79.18V58.49ZM79.61,40H99.4V52.36H79.61ZM62.29,134,37.48,134V72.09l24.81.06Zm22.27,0V116.69h9.89V134Zm27.22,0H99.4V111.74H79.61V134H67.24V57.31h44.54Zm24.74,0h-19.8V47.21l19.8,13.86Z"/></g></g></svg>